<svg xmlns="http://www.w3.org/2000/svg" xmlns:xlink="http://www.w3.org/1999/xlink" width="91" height="23" viewBox="0 0 91 23">
  <defs>
    <linearGradient id="gh-linux-a" x1="121.075%" x2="40.175%" y1="53.194%" y2="44.528%">
      <stop offset="0%" stop-color="#46BCF9"/>
      <stop offset="100%" stop-color="#1A40B9"/>
    </linearGradient>
    <linearGradient id="gh-linux-c" x1="121.075%" x2="40.175%" y1="53.194%" y2="44.528%">
      <stop offset="0%" stop-color="#0B0B0B"/>
      <stop offset="100%" stop-color="#3B3939"/>
    </linearGradient>
    <rect id="gh-linux-b" width="91" height="23" x="0" y="0" rx="4"/>
    <radialGradient id="gh-linux-e" cx="51.484%" cy="45.52%" r="56.8%" fx="51.484%" fy="45.52%" gradientTransform="matrix(.99912 -.02628 .04205 .62446 -.019 .184)">
      <stop offset="0%" stop-color="#FEFEFC"/>
      <stop offset="75.734%" stop-color="#FEFEFC"/>
      <stop offset="100%" stop-color="#D4D4D4"/>
    </radialGradient>
    <radialGradient id="gh-linux-f" cx="51.777%" cy="49.294%" r="56.246%" fx="51.777%" fy="49.294%" gradientTransform="scale(1 .79526) rotate(-1.81 4.535 .556)">
      <stop offset="0%" stop-color="#FEFEFC"/>
      <stop offset="75.734%" stop-color="#FEFEFC"/>
      <stop offset="100%" stop-color="#D4D4D4"/>
    </radialGradient>
    <radialGradient id="gh-linux-g" cx="37.811%" cy="52.78%" r="59.023%" fx="37.811%" fy="52.78%" gradientTransform="matrix(.59117 -.5879 .42964 .80893 -.072 .323)">
      <stop offset="0%" stop-color="#020204"/>
      <stop offset="73.448%" stop-color="#020204"/>
      <stop offset="100%" stop-color="#5C5C5C"/>
    </radialGradient>
    <linearGradient id="gh-linux-h" x1="14.623%" x2="110.895%" y1="13.628%" y2="91.13%">
      <stop offset="0%" stop-color="#949494" stop-opacity=".392"/>
      <stop offset="50%" stop-color="#949494"/>
      <stop offset="100%" stop-color="#949494" stop-opacity=".392"/>
    </linearGradient>
    <path id="gh-linux-i" d="M0.399628523,0.121805742 C0.256255989,0.220306696 0.136102182,0.35770878 0.077347456,0.521434265 C0.00329866274,0.727778199 0.0316692455,0.958741827 0.103129941,1.1659964 C0.176325798,1.37828319 0.298756508,1.5806293 0.483644361,1.7080649 C0.576088287,1.77178219 0.683102359,1.81547525 0.794601863,1.82865423 C0.906101366,1.8418332 1.02196595,1.82376071 1.12153811,1.7718848 C1.24287668,1.70866821 1.33542033,1.5979675 1.39288175,1.47380008 C1.45034369,1.34963267 1.47480818,1.21236053 1.48249291,1.0757577 C1.49228458,0.901702204 1.47524957,0.724782789 1.41803669,0.560107993 C1.35588698,0.381224469 1.24322886,0.216141278 1.08426932,0.113215018 C1.0047896,0.0617516306 0.914520173,0.0264022963 0.820726791,0.0134290653 C0.72693341,0.00045634999 0.629690641,0.0101650027 0.541432192,0.0444582864 C0.491132058,0.0640019259 0.444106507,0.0912483408 0.399628523,0.121805742"/>
    <linearGradient id="gh-linux-j" x1="27.269%" x2="71.225%" y1="48.575%" y2="66.876%">
      <stop offset="0%" stop-color="#747474"/>
      <stop offset="12.5%" stop-color="#8C8C8C"/>
      <stop offset="25%" stop-color="#A4A4A4"/>
      <stop offset="50%" stop-color="#D4D4D4"/>
      <stop offset="61.919%" stop-color="#D4D4D4"/>
      <stop offset="100%" stop-color="#7C7C7C"/>
    </linearGradient>
    <linearGradient id="gh-linux-l" x1="2.305%" x2="95.05%" y1="10.066%" y2="90.85%">
      <stop offset="0%" stop-color="#646464" stop-opacity="0"/>
      <stop offset="30.628%" stop-color="#646464" stop-opacity=".583"/>
      <stop offset="47%" stop-color="#646464"/>
      <stop offset="72.834%" stop-color="#646464" stop-opacity=".257"/>
      <stop offset="100%" stop-color="#646464" stop-opacity="0"/>
    </linearGradient>
    <linearGradient id="gh-linux-m" x1="2.675%" x2="96.092%" y1="8.838%" y2="87.912%">
      <stop offset="0%" stop-color="#646464" stop-opacity="0"/>
      <stop offset="30.628%" stop-color="#646464" stop-opacity=".583"/>
      <stop offset="47%" stop-color="#646464"/>
      <stop offset="72.834%" stop-color="#646464" stop-opacity=".257"/>
      <stop offset="100%" stop-color="#646464" stop-opacity="0"/>
    </linearGradient>
    <linearGradient id="gh-linux-n" x1=".265%" x2="92.433%" y1="-23.144%" y2="100.685%">
      <stop offset="0%" stop-color="#757574" stop-opacity="0"/>
      <stop offset="26.291%" stop-color="#757574"/>
      <stop offset="50%" stop-color="#757574"/>
      <stop offset="100%" stop-color="#757574" stop-opacity="0"/>
    </linearGradient>
    <radialGradient id="gh-linux-o" cx="62.018%" cy="18.391%" r="104.33%" fx="62.018%" fy="18.391%" gradientTransform="scale(.49473 1) rotate(-22.428 .937 -1.413)">
      <stop offset="0%" stop-color="#D2940A"/>
      <stop offset="75.144%" stop-color="#D89C08"/>
      <stop offset="86.579%" stop-color="#B67E07"/>
      <stop offset="100%" stop-color="#946106"/>
    </radialGradient>
    <linearGradient id="gh-linux-p" x1="2%" x2="95.648%" y1="50.413%" y2="50.044%">
      <stop offset="0%" stop-color="#AD780A"/>
      <stop offset="11.973%" stop-color="#D89E08"/>
      <stop offset="25.514%" stop-color="#EDB80B"/>
      <stop offset="39.194%" stop-color="#EBC80D"/>
      <stop offset="52.741%" stop-color="#F5D838"/>
      <stop offset="76.907%" stop-color="#F6D811"/>
      <stop offset="100%" stop-color="#F5CD31"/>
    </linearGradient>
    <radialGradient id="gh-linux-q" cx="42.979%" cy="44.055%" r="108.627%" fx="42.979%" fy="44.055%" gradientTransform="matrix(.52487 0 0 1 .204 0)">
      <stop offset="0%" stop-color="#3A2903"/>
      <stop offset="55.473%" stop-color="#735208"/>
      <stop offset="100%" stop-color="#AC8C04"/>
    </radialGradient>
    <radialGradient id="gh-linux-r" cx="55.827%" cy="39.418%" r="67.467%" fx="55.827%" fy="39.418%" gradientTransform="matrix(1 0 0 .90797 0 .036)">
      <stop offset="0%" stop-color="#3A2903"/>
      <stop offset="55.473%" stop-color="#735208"/>
      <stop offset="100%" stop-color="#AC8C04"/>
    </radialGradient>
    <linearGradient id="gh-linux-s" x1="44.908%" x2="53.295%" y1="22.819%" y2="81.879%">
      <stop offset="0%" stop-color="#F5CE2D"/>
      <stop offset="100%" stop-color="#D79B08"/>
    </linearGradient>
    <path id="gh-linux-t" d="M0.476070549,0.0186758011 C0.38423509,0.0236776032 0.296386427,0.0660634935 0.229185153,0.128854674 C0.161983878,0.191645854 0.114640171,0.273842996 0.0855158114,0.361081129 C0.0272670924,0.53555791 0.0403716593,0.724705442 0.0536126672,0.908171545 C0.0656020385,1.07429429 0.0778690357,1.2436187 0.140076037,1.39812024 C0.171179511,1.47537127 0.214857981,1.54818513 0.27313109,1.6076777 C0.331404251,1.66717027 0.404711282,1.7129677 0.485490954,1.73321108 C0.561231542,1.75219163 0.642153637,1.74825928 0.716645579,1.72485291 C0.791137522,1.70144705 0.859166878,1.65890802 0.914976626,1.60429865 C0.996399777,1.52462716 1.05127635,1.42040765 1.08274063,1.3109213 C1.11420485,1.20143442 1.12317566,1.08653375 1.12153816,0.972627758 C1.11948897,0.830084132 1.1008653,0.687034653 1.05626954,0.551631227 C1.01167379,0.416227802 0.940467924,0.28848126 0.841099492,0.186261956 C0.792973493,0.136754943 0.738084747,0.0931804802 0.676164499,0.0626364855 C0.614244302,0.0320930064 0.54501209,0.0149208399 0.476070549,0.0186758011"/>
    <radialGradient id="gh-linux-u" cx="58.836%" cy="62.512%" r="22.306%" fx="58.836%" fy="62.512%" gradientTransform="scale(.46409 1) rotate(-9.349 .928 -3.53)">
      <stop offset="0%" stop-color="#C8C8C8"/>
      <stop offset="100%" stop-color="#797978"/>
    </radialGradient>
    <path id="gh-linux-w" d="M1.28124875,2.39516762 C1.59147753,2.64904157 1.78540308,3.03029336 1.84553402,3.42662431 C1.93966072,4.04702722 1.72454404,4.66804479 1.51315086,5.25886849 C1.47099701,5.37668465 1.42859565,5.49556872 1.41183961,5.61957216 C1.39508358,5.7435756 1.40570493,5.87472853 1.46492472,5.98495845 C1.53210305,6.11000195 1.65737911,6.19764797 1.79322703,6.23880867 C1.92671688,6.2792552 2.07135043,6.27805116 2.20650274,6.24356296 C2.34165504,6.20907528 2.46747151,6.14209651 2.57710843,6.05586853 C2.8596855,5.83362506 3.02871393,5.48940052 3.09329596,5.13574629 C3.15787748,4.78209258 3.1262501,4.41750864 3.06488366,4.06328256 C2.98118701,3.5801621 2.84269123,3.10728812 2.66576924,2.65000377 C2.53594618,2.314454 2.38381508,1.98425823 2.16984159,1.69501226 C1.96120405,1.41297972 1.6973992,1.17474543 1.49416722,0.888792913 C1.35328708,0.690570978 1.24150763,0.469519684 1.07176245,0.295377043 C0.986889598,0.208305465 0.887338265,0.133706938 0.774245456,0.0890434226 C0.661152647,0.0443799076 0.533769122,0.0310606757 0.416769234,0.0641638399 C0.339180454,0.0861165949 0.267646949,0.127969819 0.208554524,0.182833401 C0.149462099,0.237696983 0.10270814,0.30537085 0.0697029491,0.378941172 C0.0036920519,0.5260813 -0.00646830992,0.694127414 0.0199365646,0.853220303 C0.0540282293,1.05862575 0.145964962,1.24992664 0.250209738,1.43016684 C0.367466419,1.63290432 0.503806264,1.82821025 0.68255211,1.97954364 C0.868108657,2.13664355 1.0930923,2.24119101 1.28124875,2.39516762"/>
    <radialGradient id="gh-linux-y" cx="11.135%" cy="51.461%" r="66.101%" fx="11.135%" fy="51.461%" gradientTransform="matrix(-.93565 0 0 -1 .216 1.03)">
      <stop offset="0%"/>
      <stop offset="100%" stop-opacity=".249"/>
    </radialGradient>
    <radialGradient id="gh-linux-z" cx="47.042%" cy="85.561%" r="73.468%" fx="47.042%" fy="85.561%" gradientTransform="matrix(.69322 0 0 1 .144 0)">
      <stop offset="0%"/>
      <stop offset="100%" stop-opacity=".249"/>
    </radialGradient>
    <radialGradient id="gh-linux-A" cx="46.333%" cy="98.4%" r="50%" fx="46.333%" fy="98.4%" gradientTransform="matrix(1 0 0 .93525 0 .064)">
      <stop offset="0%"/>
      <stop offset="100%" stop-opacity=".249"/>
    </radialGradient>
    <linearGradient id="gh-linux-B" x1="21.997%" x2="26.484%" y1="35.093%" y2="70.582%">
      <stop offset="0%"/>
      <stop offset="100%" stop-opacity="0"/>
    </linearGradient>
    <path id="gh-linux-C" d="M4.48644224,2.41713894 C4.45182152,2.5057817 4.40255532,2.58868477 4.34124611,2.66146718 C4.20594994,2.82208278 4.01803688,2.92807819 3.83093441,3.02344554 C3.51181944,3.18610053 3.18112864,3.32880143 2.88112622,3.52447864 C2.68012493,3.65558206 2.49460035,3.80946327 2.32112238,3.9752792 C2.17276017,4.11708906 2.03205844,4.2685524 1.86567633,4.38871218 C1.6977978,4.50995278 1.50373406,4.59776998 1.29894585,4.62849961 C1.04987363,4.66587442 0.792508737,4.61752194 0.561619362,4.51690476 C0.399832204,4.44640101 0.244201388,4.34555952 0.151006985,4.19569058 C0.0574552373,4.04524771 0.0361166211,3.86113034 0.035877753,3.6839727 C0.0354674181,3.3706299 0.0935419507,3.06055014 0.148213195,2.75201372 C0.193640387,2.49564454 0.236878647,2.2386932 0.264756732,1.97982725 C0.315464177,1.50897822 0.315099613,1.03346669 0.281252366,0.561106291 C0.275583829,0.481997375 0.269003623,0.402121173 0.280839847,0.323694978 C0.292659569,0.245268783 0.324915005,0.167107632 0.385036667,0.115379716 C0.440570078,0.0675996139 0.515028349,0.0464899462 0.588175322,0.0424410647 C0.661322296,0.0383932146 0.734312512,0.0499979112 0.806801516,0.0605903875 C0.977612544,0.0855504115 1.14979056,0.105188931 1.31673628,0.149104754 C1.42207526,0.176814737 1.52470554,0.214037943 1.62984909,0.242479118 C1.80530303,0.289939001 1.98907079,0.312681732 2.16959975,0.291564845 C2.36395689,0.268830365 2.55272078,0.195820039 2.7483459,0.200566079 C2.8286109,0.202515234 2.90827466,0.217670695 2.98484812,0.24181032 C3.06298916,0.266443938 3.14001434,0.301719535 3.1974407,0.360158116 C3.24108478,0.404571025 3.27147717,0.460472094 3.29431684,0.518400182 C3.32834044,0.604695192 3.34665116,0.696660286 3.35449471,0.789087917 C3.36144309,0.870966903 3.36034372,0.953807575 3.37585962,1.03450263 C3.40138583,1.16726077 3.47112384,1.28835956 3.55780559,1.39210261 C3.64448734,1.49584566 3.74807105,1.58394905 3.85154081,1.6709572 C3.95462331,1.75763946 4.05834728,1.84394169 4.16954611,1.91993299 C4.22173501,1.9555979 4.27558534,1.98900375 4.32513619,2.0282514 C4.37468703,2.06749905 4.42025602,2.11316859 4.45123471,2.16826834 C4.49325604,2.24300867 4.50608798,2.3336733 4.4864572,2.41713894 L4.48645823,2.41713894"/>
    <linearGradient id="gh-linux-D" x1="16.413%" x2="68.679%" y1="96.12%" y2="8.72%">
      <stop offset="0%" stop-color="#3E2A06"/>
      <stop offset="100%" stop-color="#AD780A"/>
    </linearGradient>
    <path id="gh-linux-F" d="M4.48644224,2.41713894 C4.45182152,2.5057817 4.40255532,2.58868477 4.34124611,2.66146718 C4.20594994,2.82208278 4.01803688,2.92807819 3.83093441,3.02344554 C3.51181944,3.18610053 3.18112864,3.32880143 2.88112622,3.52447864 C2.68012493,3.65558206 2.49460035,3.80946327 2.32112238,3.9752792 C2.17276017,4.11708906 2.03205844,4.2685524 1.86567633,4.38871218 C1.6977978,4.50995278 1.50373406,4.59776998 1.29894585,4.62849961 C1.04987363,4.66587442 0.792508737,4.61752194 0.561619362,4.51690476 C0.399832204,4.44640101 0.244201388,4.34555952 0.151006985,4.19569058 C0.0574552373,4.04524771 0.0361166211,3.86113034 0.035877753,3.6839727 C0.0354674181,3.3706299 0.0935419507,3.06055014 0.148213195,2.75201372 C0.193640387,2.49564454 0.236878647,2.2386932 0.264756732,1.97982725 C0.315464177,1.50897822 0.315099613,1.03346669 0.281252366,0.561106291 C0.275583829,0.481997375 0.269003623,0.402121173 0.280839847,0.323694978 C0.292659569,0.245268783 0.324915005,0.167107632 0.385036667,0.115379716 C0.440570078,0.0675996139 0.515028349,0.0464899462 0.588175322,0.0424410647 C0.661322296,0.0383932146 0.734312512,0.0499979112 0.806801516,0.0605903875 C0.977612544,0.0855504115 1.14979056,0.105188931 1.31673628,0.149104754 C1.42207526,0.176814737 1.52470554,0.214037943 1.62984909,0.242479118 C1.80530303,0.289939001 1.98907079,0.312681732 2.16959975,0.291564845 C2.36395689,0.268830365 2.55272078,0.195820039 2.7483459,0.200566079 C2.8286109,0.202515234 2.90827466,0.217670695 2.98484812,0.24181032 C3.06298916,0.266443938 3.14001434,0.301719535 3.1974407,0.360158116 C3.24108478,0.404571025 3.27147717,0.460472094 3.29431684,0.518400182 C3.32834044,0.604695192 3.34665116,0.696660286 3.35449471,0.789087917 C3.36144309,0.870966903 3.36034372,0.953807575 3.37585962,1.03450263 C3.40138583,1.16726077 3.47112384,1.28835956 3.55780559,1.39210261 C3.64448734,1.49584566 3.74807105,1.58394905 3.85154081,1.6709572 C3.95462331,1.75763946 4.05834728,1.84394169 4.16954611,1.91993299 C4.22173501,1.9555979 4.27558534,1.98900375 4.32513619,2.0282514 C4.37468703,2.06749905 4.42025602,2.11316859 4.45123471,2.16826834 C4.49325604,2.24300867 4.50608798,2.3336733 4.4864572,2.41713894 L4.48645823,2.41713894"/>
    <path id="gh-linux-H" d="M3.91000104,1.95430517 C3.87874391,2.02668073 3.8356557,2.09393073 3.78296713,2.15257454 C3.6630662,2.28602727 3.49899574,2.37030557 3.33648925,2.44631543 C3.05698391,2.57705016 2.76923797,2.69273411 2.50549087,2.85289749 C2.33104606,2.95883102 2.16841272,3.08350687 2.01553651,3.21871692 C1.88535507,3.33385428 1.76133306,3.4573132 1.61706149,3.55421254 C1.46839298,3.65406502 1.29863027,3.7243192 1.12122202,3.74879709 C0.903712206,3.77880842 0.680168777,3.73934265 0.476126188,3.6582392 C0.336431526,3.60271301 0.199415664,3.52321633 0.116876647,3.39757776 C0.0375630185,3.27684869 0.0171860891,3.12677246 0.0161506645,2.98232505 C0.0143252645,2.7276668 0.0659113768,2.47605192 0.114432467,2.22605205 C0.154764009,2.0182478 0.193162896,1.80983507 0.216397556,1.59943246 C0.258569451,1.21753868 0.250489221,0.831869311 0.230830075,0.448157863 C0.227529917,0.383750121 0.22394048,0.318704005 0.234898552,0.255149663 C0.245859202,0.191595321 0.27287409,0.128688119 0.321615878,0.0864564081 C0.370042605,0.0444979914 0.435549712,0.0266709498 0.499568655,0.0239854461 C0.563587597,0.0212989111 0.627265179,0.0324323039 0.690623059,0.0419955434 C0.839629839,0.0644866367 0.9902604,0.0785602641 1.13677092,0.113824001 C1.22889226,0.135996938 1.31884219,0.166425943 1.41071756,0.189596147 C1.56470706,0.228430757 1.72508083,0.24668321 1.88295163,0.22942854 C2.05281179,0.210863088 2.2184787,0.151587607 2.38930365,0.155583892 C2.45934848,0.157223658 2.52891839,0.169579656 2.59622202,0.189053168 C2.66390878,0.208637543 2.73119024,0.236503254 2.78222202,0.285090863 C2.81962468,0.320702147 2.84668133,0.366014865 2.86697988,0.413502594 C2.8966942,0.483019393 2.91267985,0.557881418 2.9196303,0.63316215 C2.92576498,0.699606192 2.92502812,0.766924262 2.93832311,0.832313285 C2.96085185,0.943115063 3.02287213,1.04277004 3.09895109,1.12641564 C3.17503005,1.21006124 3.26519965,1.27943572 3.35450193,1.34878803 C3.44506755,1.41912162 3.53548208,1.49006574 3.63272846,1.55082887 C3.67822321,1.57925561 3.72520972,1.60545267 3.76858824,1.63701559 C3.81196624,1.66857799 3.85206058,1.7060647 3.87918118,1.75234993 C3.9144444,1.81253192 3.92570773,1.88634512 3.90999795,1.95430517 L3.90999898,1.95430517"/>
    <linearGradient id="gh-linux-J" x1="34.053%" x2="31.483%" y1="49.061%" y2="52.803%">
      <stop offset="0%" stop-color="#F3CD0C"/>
      <stop offset="100%" stop-color="#F3CD0C" stop-opacity="0"/>
    </linearGradient>
    <radialGradient id="gh-linux-K" cx="44.611%" cy="43.017%" r="78.234%" fx="44.611%" fy="43.017%" gradientTransform="scale(.85653 1) rotate(15 .483 .714)">
      <stop offset="0%" stop-color="#110800"/>
      <stop offset="59.067%" stop-color="#A65A00" stop-opacity=".8"/>
      <stop offset="100%" stop-color="#FF921E" stop-opacity="0"/>
    </radialGradient>
    <radialGradient id="gh-linux-L" cx="44.611%" cy="43.017%" r="106.475%" fx="44.611%" fy="43.017%" gradientTransform="scale(.6192 1) rotate(10.963 .583 1.86)">
      <stop offset="0%" stop-color="#110800"/>
      <stop offset="59.067%" stop-color="#A65A00" stop-opacity=".8"/>
      <stop offset="100%" stop-color="#FF921E" stop-opacity="0"/>
    </radialGradient>
    <path id="gh-linux-M" d="M1.86600738,0.429420184 C1.84511531,0.372508442 1.80833453,0.322084604 1.76335699,0.281435422 C1.71837893,0.240785724 1.66535828,0.209642029 1.60955003,0.185960301 C1.49793301,0.138596844 1.37644903,0.120911606 1.2572829,0.098528799 C1.14491303,0.0774227408 1.03339862,0.0517949504 0.92067605,0.0326627994 C0.803553439,0.0127839875 0.682554172,6.70344619e-05 0.566667057,0.0262017085 C0.465299091,0.049062007 0.371519426,0.101424172 0.29483097,0.171544797 C0.218141999,0.241664907 0.158229691,0.329147974 0.115127563,0.423701113 C0.0392146445,0.590231218 0.0153746117,0.777696184 0.0298421955,0.960139754 C0.0406099926,1.09592321 0.0749780456,1.23580299 0.164363344,1.33858126 C0.23658782,1.42162768 0.339030916,1.47343707 0.444566363,1.50466791 C0.626333916,1.55845842 0.824426423,1.55562544 1.00458154,1.49665987 C1.30195105,1.3970812 1.56538566,1.19893043 1.7435251,0.940839501 C1.80223749,0.855776378 1.85243908,0.763038841 1.87518078,0.662213338 C1.89250507,0.585404736 1.89314138,0.503335476 1.86600738,0.429420184"/>
    <radialGradient id="gh-linux-N" cx="85.792%" cy="40.054%" r="49.388%" fx="85.792%" fy="40.054%" gradientTransform="scale(.46783 1) rotate(23.522 1.346 2.744)">
      <stop offset="0%" stop-color="#7C7C7C"/>
      <stop offset="100%" stop-color="#7C7C7C" stop-opacity=".329"/>
    </radialGradient>
    <path id="gh-linux-P" d="M1.86600738,0.429420184 C1.84511531,0.372508442 1.80833453,0.322084604 1.76335699,0.281435422 C1.71837893,0.240785724 1.66535828,0.209642029 1.60955003,0.185960301 C1.49793301,0.138596844 1.37644903,0.120911606 1.2572829,0.098528799 C1.14491303,0.0774227408 1.03339862,0.0517949504 0.92067605,0.0326627994 C0.803553439,0.0127839875 0.682554172,6.70344619e-05 0.566667057,0.0262017085 C0.465299091,0.049062007 0.371519426,0.101424172 0.29483097,0.171544797 C0.218141999,0.241664907 0.158229691,0.329147974 0.115127563,0.423701113 C0.0392146445,0.590231218 0.0153746117,0.777696184 0.0298421955,0.960139754 C0.0406099926,1.09592321 0.0749780456,1.23580299 0.164363344,1.33858126 C0.23658782,1.42162768 0.339030916,1.47343707 0.444566363,1.50466791 C0.626333916,1.55845842 0.824426423,1.55562544 1.00458154,1.49665987 C1.30195105,1.3970812 1.56538566,1.19893043 1.7435251,0.940839501 C1.80223749,0.855776378 1.85243908,0.763038841 1.87518078,0.662213338 C1.89250507,0.585404736 1.89314138,0.503335476 1.86600738,0.429420184"/>
    <linearGradient id="gh-linux-Q" x1="23.003%" x2="31.593%" y1="42.985%" y2="42.817%">
      <stop offset="0%" stop-color="#7C7C7C"/>
      <stop offset="100%" stop-color="#7C7C7C" stop-opacity=".329"/>
    </linearGradient>
    <path id="gh-linux-S" d="M2.47824652,0.0315670437 C2.34413067,0.208935073 2.20838744,0.385073278 2.07104053,0.559951235 C1.92495645,0.745953819 1.77706038,0.930528054 1.62823717,1.11434635 C1.44562756,1.33989514 1.2594677,1.56774991 1.14099358,1.83266959 C1.03920071,2.06028872 0.990932292,2.30745303 0.921070007,2.54680937 C0.841731112,2.81863566 0.734081501,3.08154998 0.613190521,3.33761595 C0.501562672,3.57406145 0.378581249,3.80494567 0.25538583,4.03557516 C0.165754051,4.20337118 0.0746428733,4.37492629 0.0435662124,4.56260577 C0.0190073638,4.71092312 0.0333310814,4.86396332 0.0710895311,5.00948121 C0.108847465,5.15499859 0.169560062,5.29363514 0.238044015,5.42746738 C0.530275079,5.99855149 0.968721196,6.4908237 1.48806966,6.86740474 C1.72375406,7.03830034 1.97621925,7.18613247 2.24104456,7.30704511 C2.38452255,7.37255376 2.5356636,7.43102586 2.69336527,7.43376293 C2.77221584,7.4351294 2.85188114,7.42213812 2.92408448,7.39041999 C2.99628781,7.35870238 3.06076671,7.3077237 3.10366155,7.24154728 C3.15640117,7.16018291 3.17430144,7.05909546 3.16371463,6.96271331 C3.15312834,6.86633116 3.11550963,6.77434957 3.06505847,6.69154705 C2.94181973,6.48928294 2.74715011,6.34293949 2.55990636,6.19789342 C2.15560863,5.88470944 1.76453422,5.55434299 1.3903035,5.20578544 C1.28464121,5.10737163 1.17896963,5.00583763 1.10513942,4.88174498 C1.03324238,4.76090144 0.994396942,4.62321111 0.968088494,4.4850799 C0.895916614,4.10614336 0.914440298,3.70734091 1.04335169,3.34377023 C1.09378327,3.20153651 1.16043821,3.06571901 1.224765,2.92920591 C1.33625877,2.69259746 1.4419221,2.4515601 1.58826349,2.23476859 C1.77042603,1.96491157 2.01340842,1.73599352 2.16328871,1.44695742 C2.28985854,1.20287463 2.34343249,0.928346855 2.38820738,0.657069217 C2.42251407,0.449216492 2.4525352,0.240656812 2.47824652,0.0315670437"/>
    <path id="gh-linux-U" d="M2.14391833,0.0525498616 C2.22638567,0.0183648643 2.31914642,0.0121430349 2.40693784,0.0283334044 C2.49472875,0.0445237739 2.5776906,0.0824498098 2.65153215,0.132617885 C2.79921526,0.232954552 2.90874906,0.378981908 3.01365386,0.523455612 C3.25455973,0.855227727 3.48643658,1.19391728 3.69662571,1.54595288 C3.86711755,1.83150216 4.02372913,2.12641202 4.22073981,2.39435341 C4.34934181,2.56925663 4.49437448,2.73156099 4.62361692,2.90599188 C4.75285885,3.08042225 4.86741301,3.26982709 4.92472077,3.47922006 C4.99918626,3.75130418 4.97033669,4.05122564 4.8408421,4.30183707 C4.74974587,4.47813564 4.61001357,4.6293922 4.44005749,4.73183633 C4.27010192,4.83428046 4.07030365,4.88727584 3.87199972,4.87983862 C3.55672479,4.86801477 3.26871844,4.71043996 2.97561387,4.59370151 C2.37844149,4.35585808 1.72981552,4.28124872 1.11429066,4.09600982 C0.925119919,4.03908003 0.73911321,3.97170214 0.548629115,3.91933327 C0.463998107,3.89606613 0.378018159,3.87559587 0.298087814,3.83933332 C0.218157984,3.80307025 0.143416209,3.74914103 0.0989588508,3.6734617 C0.0645964185,3.61496691 0.0500553546,3.54609519 0.050951237,3.47826044 C0.0519322679,3.41042569 0.0677982422,3.34344227 0.0908955332,3.27965383 C0.137090064,3.15207745 0.21172577,3.03658996 0.262099589,2.91060539 C0.34435139,2.70489468 0.359128879,2.47805831 0.348036223,2.25679147 C0.336944082,2.03552464 0.301071879,1.81618014 0.285924153,1.5951536 C0.27915986,1.49645515 0.276608425,1.39649646 0.295452844,1.29937796 C0.314297262,1.20225895 0.356081389,1.10731959 0.427341085,1.03869589 C0.493037951,0.975429283 0.580227098,0.93787039 0.66951236,0.919245122 C0.758797622,0.900619855 0.850780248,0.899780893 0.941964648,0.901835757 C1.03314853,0.903893199 1.12453919,0.908758354 1.21543999,0.901289168 C1.30634078,0.893818435 1.39764326,0.873415723 1.47682849,0.828155602 C1.55211129,0.785126181 1.61369894,0.72118407 1.66471784,0.651069117 C1.71573622,0.580954164 1.75697221,0.504329133 1.79924621,0.428619896 C1.84152072,0.352910659 1.88527411,0.277456669 1.94061518,0.210700658 C1.99595677,0.143944647 2.06381576,0.0857566714 2.14391833,0.0525519242"/>
    <linearGradient id="gh-linux-W" x1="27.435%" x2="77.519%" y1="23.04%" y2="106.155%">
      <stop offset="0%" stop-color="#B98309"/>
      <stop offset="100%" stop-color="#382605"/>
    </linearGradient>
    <linearGradient id="gh-linux-X" x1="51.703%" x2="69.058%" y1="55%" y2="114.254%">
      <stop offset="0%" stop-color="#EBC40C"/>
      <stop offset="100%" stop-color="#EBC40C" stop-opacity="0"/>
    </linearGradient>
  </defs>
  <g fill="none" fill-rule="evenodd">
    <rect width="91" height="23" fill="url(#gh-linux-a)" rx="4"/>
    <mask id="gh-linux-d" fill="#fff">
      <use xlink:href="#gh-linux-b"/>
    </mask>
    <use fill="url(#gh-linux-c)" xlink:href="#gh-linux-b"/>
    <path fill="#494949" d="M0 0H28.115V23.5H0z" mask="url(#gh-linux-d)"/>
    <text fill="#FFF" font-family="Helvetica" font-size="11" letter-spacing=".157">
      <tspan x="34.5" y="15">Linux</tspan>
    </text>
    <g transform="translate(9 3.5)">
      <path fill="#020204" fill-rule="nonzero" d="M7.76176126,5.38193494 C7.9296798,5.74756564 8.11709934,6.10401366 8.28365961,6.47026521 C8.60420273,7.17511143 8.84761162,7.9193997 8.94875744,8.68707527 C9.04990321,9.45475083 9.00573807,10.247323 8.76551054,10.9834253 C8.49436099,11.8142783 7.97971953,12.553458 7.34903833,13.1585039 C6.6030165,13.8742019 5.6453119,14.426041 4.61229765,14.4667072 C3.93916795,14.4932059 3.26902082,14.300752 2.67289588,13.9869993 C2.17193281,13.7233321 1.71463098,13.371987 1.34972636,12.9391717 C0.984821791,12.5063565 0.713912017,11.9910363 0.58845764,11.4389987 C0.433970587,10.7592085 0.503835605,10.0375577 0.737675837,9.38082368 C0.904907482,8.91115806 1.15275023,8.47391547 1.32923073,8.00764645 C1.5220734,7.49814792 1.62977293,6.95416481 1.8852621,6.47301774 C2.11686508,6.03685389 2.46414943,5.66415982 2.64863972,5.20607467 C2.75883504,4.93246217 2.80661267,4.63858205 2.87776965,4.35232428 C2.94892662,4.06606701 3.04854778,3.77767599 3.24233868,3.55529845 C3.47585741,3.28733231 3.82724123,3.14203357 4.18033678,3.10128744 C4.53343233,3.0605408 4.89077909,3.11556424 5.23733212,3.19454372 C5.51323792,3.25742256 5.78571805,3.3355899 6.05233711,3.43041634 C6.2799141,3.51135684 6.50536956,3.60561451 6.70215629,3.74567735 C6.97023829,3.93648476 7.174509,4.20515476 7.33719014,4.49117946 C7.49987128,4.77720468 7.62443183,5.08290967 7.76176126,5.38193494"/>
      <path fill="#020204" fill-rule="nonzero" d="M4.7973669,14.4730899 C5.0810174,14.4895891 5.36411213,14.5171506 5.64505634,14.5595788 C5.89215393,14.5968953 6.13748809,14.645699 6.38035684,14.7045593 C6.7607591,14.7967513 7.1398163,14.9143205 7.53107196,14.9254683 C7.63406221,14.9284024 7.73786188,14.9238131 7.83843089,14.9014215 C7.93899996,14.8790279 8.03656233,14.8382292 8.11711661,14.7739906 C8.23722298,14.6782107 8.31357889,14.5337757 8.34179138,14.3827681 C8.37000386,14.2317601 8.35253288,14.0746221 8.30831055,13.9275041 C8.2198659,13.6332677 8.03039026,13.3821886 7.87328082,13.1181548 C7.78331351,12.966958 7.70314174,12.809803 7.60570488,12.6633084 C7.50826807,12.5168139 7.39164028,12.3796423 7.24376535,12.2843136 C7.03917308,12.1524213 6.78546599,12.1094119 6.5432463,12.1335603 C6.30102655,12.1577087 6.06882758,12.2452037 5.8526631,12.3571254 C5.54965501,12.5140113 5.26445962,12.7293998 5.09922205,13.0279357 C5.04171583,13.1318324 4.99994538,13.2435345 4.9511031,13.3517745 C4.90226081,13.4600151 4.8451034,13.5665797 4.76236151,13.6517579 C4.6701123,13.746723 4.55032793,13.8107842 4.45488445,13.9025384 C4.40716271,13.9484158 4.36539501,14.0018206 4.34093356,14.0633324 C4.31647212,14.1248443 4.31042506,14.1951289 4.33274538,14.2574498 C4.3480518,14.3001868 4.37611578,14.3378138 4.41065406,14.3672734 C4.44519236,14.396733 4.48605403,14.4182516 4.52888333,14.4332987 C4.61454191,14.4633926 4.70672897,14.4678179 4.7973669,14.4730899"/>
      <path fill="#020204" fill-rule="nonzero" d="M3.95434821 14.4548586C3.71797944 14.4603121 3.4840716 14.5026046 3.25253442 14.5504636 3.03119854 14.5962141 2.81092159 14.6471722 2.59231376 14.7045593 2.22342481 14.8013973 1.8540342 14.9173633 1.47273253 14.9254683 1.37238143 14.9276031 1.27131058 14.9221166 1.17351962 14.8994904 1.07572872 14.8768668.981027331 14.8365626.902544002 14.7739906.782652764 14.6784051.706455774 14.5342449.678216114 14.383537.649976455 14.2328286.667227774 14.0760025.710976784 13.9290449.798474805 13.6351302.986147217 13.3835561 1.13978257 13.1181548 1.22708372 12.9673443 1.30412931 12.8104955 1.39853358 12.6640262 1.49293786 12.5175575 1.60666842 12.3800569 1.75226572 12.2843136 1.95070578 12.1538212 2.19813776 12.1096409 2.43449313 12.13294 2.67084844 12.1562391 2.89729349 12.2432798 3.10573018 12.3571254 3.39998378 12.5178431 3.66864274 12.73903 3.83878647 13.0279357 3.95815638 13.2306267 4.02704481 13.4623484 4.16653291 13.6517579 4.24164184 13.7537477 4.33614718 13.8418341 4.39863771 13.9520073 4.42988297 14.0070941 4.45276298 14.0677918 4.4581015 14.1308975 4.46344002 14.1940032 4.45029565 14.2597042 4.41478421 14.3121422 4.39129727 14.3468243 4.35871601 14.3748782 4.32231057 14.3955939 4.28590514 14.4163091 4.24572168 14.4298686 4.20471944 14.43843 4.12271497 14.4555531 4.038099 14.4529264 3.95434821 14.4548586M2.63357295 4.61183324C2.60035634 4.21217687 2.60830642 3.8103491 2.59339353 3.40959234 2.57905439 3.02425556 2.54356021 2.63910133 2.55653076 2.25371608 2.56973892 1.86127211 2.63544548 1.46430001 2.80991381 1.11252233 2.98446371.760580167 3.26774758.462399691 3.61357491.276028005 3.93896792.100668689 4.31310631.0257889774 4.68272147.0298083121 5.18387079.0352580076 5.68636339.186648791 6.09221384.480699428 6.34657642.664992582 6.5606668.902420138 6.72944189 1.16733383 6.87348358 1.3934254 6.98538034 1.6403951 7.05560168 1.89911203 7.1996198 2.42971867 7.16546647 2.98959875 7.19347764 3.53868885 7.22002401 4.05906449 7.30334006 4.57825723 7.27501527 5.09853901 7.26886387 5.21153076 7.25663932 5.32716984 7.20627761 5.42850429 7.157199 5.52725688 7.07385454 5.60667416 6.97811958 5.66140625 6.88238463 5.71613834 6.7745798 5.74729802 6.66559373 5.76411542 6.44762159 5.79775073 6.22478295 5.77555769 6.00517321 5.79592276 5.68650473 5.82547412 5.38253253 5.94366465 5.06625502 5.9925668 4.68933897 6.0508445 4.30529143 6.00951466 3.92420023 5.99429939 3.77157065 5.98820544 3.61847003 5.98630269 3.46690506 5.96730306 3.31534014 5.94830343 3.16424405 5.91156133 3.02943414 5.8397339 2.94635616 5.7954695 2.86992321 5.73789257 2.80794067 5.66704436 2.74595813 5.59619615 2.69867455 5.51186474 2.6750647 5.42073912 2.6396223 5.28394396 2.65831382 5.13990804 2.65880993 4.99859682 2.6592637 4.86935386 2.64427789 4.74063326 2.63357295 4.61183324"/>
      <path fill="#FDFDFB" fill-rule="nonzero" d="M3.23333905,4.45790252 C3.17938146,4.52552276 3.14424849,4.606784 3.12302776,4.69065081 C3.10180702,4.77451711 3.09403349,4.86122825 3.0907207,4.94767435 C3.08409512,5.12056705 3.09466336,5.29677693 3.04890352,5.46363551 C2.99998167,5.64202452 2.8902922,5.79656422 2.78295151,5.94720922 C2.59706732,6.20808466 2.40918025,6.47575584 2.31747143,6.78267364 C2.26193065,6.96854938 2.24344409,7.16541722 2.2634102,7.35838313 C2.05533018,7.66396746 1.87518517,7.98856483 1.72595367,8.32680886 C1.49977955,8.83944872 1.34457321,9.38525723 1.28999494,9.94290919 C1.22316411,10.6257511 1.31049609,11.3280392 1.58017537,11.9589216 C1.77515846,12.4150612 2.06579921,12.8326277 2.44057094,13.1576319 C2.63112475,13.3228811 2.84276069,13.4638989 3.06912215,13.5751581 C3.85355504,13.9607161 4.82302601,13.9614318 5.59441129,13.5503909 C5.99756577,13.3355656 6.33786921,13.0214271 6.66597469,12.7035745 C6.86356295,12.5121607 7.06011294,12.3161931 7.2108375,12.0860577 C7.50101731,11.6429929 7.60208538,11.1044844 7.66488976,10.5785887 C7.77470804,9.65901979 7.77825035,8.6877023 7.37502398,7.85399057 C7.23620133,7.56696035 7.0512497,7.30230159 6.82943307,7.0732701 C6.77036695,6.67204977 6.65378314,6.27934178 6.4843541,5.91088479 C6.36212176,5.64506634 6.21269437,5.39204476 6.09912303,5.12241256 C6.05249721,5.01171701 6.01198107,4.89836998 5.96023485,4.78997371 C5.90848858,4.68157744 5.84465475,4.57726924 5.75787018,4.49422746 C5.66900167,4.40919167 5.5582644,4.348905 5.44147093,4.31033079 C5.3246774,4.2717571 5.20173692,4.25428122 5.07889364,4.24810219 C4.83320703,4.23574413 4.58702986,4.26787632 4.34122627,4.25811765 C4.14554942,4.25034887 3.95047903,4.21605817 3.75498839,4.22759841 C3.65724302,4.23336853 3.55951234,4.25083255 3.46878919,4.28766644 C3.37806599,4.32450033 3.29441059,4.3813667 3.23333905,4.45790252"/>
      <path fill="#000" fill-opacity=".259" fill-rule="nonzero" d="M3.11284048,5.3750902 C3.20065232,5.62970514 3.37738682,5.8470123 3.58650846,6.01674098 C3.65605187,6.07318399 3.72997082,6.12525533 3.81165314,6.1619995 C3.8933355,6.19874315 3.98344947,6.21972391 4.07269446,6.21214385 C4.16009571,6.20472056 4.24324408,6.17040923 4.31962472,6.1272808 C4.39600535,6.08415186 4.46689516,6.03204649 4.54099257,5.98510329 C4.66797753,5.9046542 4.80396566,5.8396184 4.9358338,5.76745167 C5.09478088,5.68046569 5.24881254,5.58232621 5.38262828,5.46016209 C5.44388479,5.40423936 5.50100846,5.34321531 5.56864989,5.29521194 C5.63629128,5.24720804 5.71731103,5.21241303 5.80006374,5.21804444 C5.86214038,5.22226761 5.92036007,5.24866682 5.98118518,5.26176844 C6.01159779,5.26831926 6.04310357,5.27153072 6.07385852,5.26684244 C6.10461347,5.26215518 6.13469111,5.24908398 6.15625393,5.22665889 C6.18267412,5.19918198 6.19422668,5.15963422 6.19284479,5.12154112 C6.19146285,5.08344801 6.17817724,5.04661567 6.16041801,5.01288753 C6.12489954,4.94543076 6.07097614,4.88732013 6.04696352,4.81496416 C6.02559525,4.75057653 6.02992382,4.68095351 6.03180708,4.61313835 C6.03369023,4.54532371 6.03219382,4.47447911 6.00094024,4.41426721 C5.97713831,4.36841461 5.93719944,4.33200819 5.89153793,4.30784175 C5.84587648,4.2836748 5.79466911,4.27123011 5.7432329,4.26640156 C5.64036042,4.25674499 5.53728607,4.27671301 5.43412725,4.28256667 C5.29718013,4.29033751 5.15970069,4.27319422 5.02278059,4.28142708 C4.85203396,4.29169367 4.68466837,4.34126978 4.51361364,4.34157504 C4.31838987,4.341936 4.12336363,4.27805112 3.93054066,4.30857552 C3.84780054,4.32167354 3.76889593,4.35176634 3.6894391,4.37830116 C3.60998233,4.40483649 3.52789935,4.42817686 3.44413768,4.42696354 C3.34904166,4.42558675 3.25699437,4.39265375 3.16212963,4.38588379 C3.11469728,4.38250113 3.06609142,4.38587451 3.02155908,4.40255268 C2.9770268,4.41923086 2.93675982,4.45017654 2.91490473,4.4924098 C2.90238119,4.51661027 2.89617664,4.54381131 2.89500792,4.57103555 C2.89383946,4.59825928 2.89759957,4.62554076 2.90417761,4.65198379 C2.91733349,4.70487037 2.94152267,4.75422939 2.9614055,4.80497087 C3.03321014,4.98821885 3.04867205,5.18902986 3.11284048,5.37508969"/>
      <path fill="#000" fill-rule="nonzero" d="M2.86798927,4.64930181 C3.03859099,4.75469342 3.1916481,4.88413218 3.32018776,5.03172232 C3.43947012,5.16868315 3.54094111,5.3240319 3.69657647,5.42541667 C3.80654191,5.49705088 3.93866756,5.53740464 4.07269446,5.54967116 C4.23004543,5.56407219 4.38929105,5.54079638 4.54099257,5.49970215 C4.68159168,5.46161541 4.81754711,5.40806609 4.94227942,5.33719659 C5.17938715,5.20247855 5.37744722,5.00506142 5.6389232,4.91651313 C5.69600692,4.89718193 5.75542056,4.88335228 5.81045453,4.85950556 C5.86548849,4.83565837 5.91726394,4.79994267 5.94354842,4.74942317 C5.96881418,4.70086196 5.96783365,4.64481194 5.97606169,4.5914982 C5.9848642,4.53446166 6.00461647,4.47931835 6.01545078,4.42257962 C6.0262851,4.36584089 6.0275775,4.30515137 6.00094024,4.2530279 C5.97888218,4.20986471 5.9387845,4.17571261 5.89266022,4.15401322 C5.84653595,4.13231383 5.79463101,4.12245634 5.74290111,4.12011855 C5.63944131,4.11544011 5.53728331,4.13983875 5.43412725,4.14850549 C5.29750302,4.15998404 5.15990985,4.14379856 5.02278059,4.14760305 C4.85218933,4.15233373 4.68409201,4.18792024 4.51361363,4.19533876 C4.31912851,4.20380174 4.12512025,4.17550837 3.93054066,4.1691495 C3.84637369,4.16639943 3.76164476,4.16779109 3.67868177,4.18114434 C3.59571879,4.19449664 3.51428249,4.22017152 3.44413758,4.26310625 C3.3760729,4.3047676 3.3205499,4.36129544 3.25816505,4.40991935 C3.22697258,4.43423153 3.1938245,4.4567075 3.1574201,4.47380017 C3.12101569,4.49089285 3.08116587,4.50251246 3.04035188,4.50432019 C3.0193505,4.50525113 2.99815395,4.50359824 2.97737559,4.50656204 C2.9425088,4.51153163 2.91014987,4.53000409 2.88980362,4.55655433 C2.86945732,4.58310456 2.86139669,4.61737541 2.86798927,4.64930133 L2.86798927,4.64930181" opacity=".3"/>
      <path fill="url(#gh-linux-e)" fill-rule="nonzero" d="M3.31213599,2.32042362 C3.22030053,2.32542543 3.13245187,2.36781132 3.06525055,2.4306025 C2.99804927,2.49339368 2.95070556,2.57559082 2.9215812,2.66282895 C2.86333249,2.83730573 2.8764371,3.02645326 2.88967811,3.20991937 C2.90166748,3.37604211 2.91393448,3.54536652 2.97614148,3.69986806 C3.00724496,3.77711909 3.05092337,3.84993295 3.10919653,3.90942552 C3.1674697,3.96891809 3.24077673,4.01471552 3.3215564,4.0349589 C3.39729699,4.05393945 3.47821903,4.0500071 3.55271097,4.02660073 C3.62720286,4.00319436 3.69523222,3.96065584 3.75104197,3.90604647 C3.83246512,3.82637498 3.8873417,3.72215547 3.91880597,3.61266912 C3.95027019,3.50318225 3.959241,3.38828157 3.95760351,3.27437558 C3.95555431,3.13183195 3.93693064,2.98878247 3.89233489,2.85337905 C3.84773913,2.71797562 3.77653321,2.59022908 3.67716483,2.48800978 C3.62903883,2.43850276 3.57415014,2.3949283 3.51222989,2.36438431 C3.4503097,2.33384083 3.38107754,2.31666866 3.31213599,2.32042362"/>
      <path fill="url(#gh-linux-f)" fill-rule="nonzero" d="M4.93733795,2.32042362 C4.79396542,2.41892458 4.67381161,2.55632666 4.61505689,2.72005215 C4.54100807,2.92639608 4.56937867,3.15735971 4.64083937,3.36461428 C4.71403521,3.57690108 4.83646594,3.77924718 5.02135379,3.90668278 C5.11379771,3.97040007 5.22081178,4.01409313 5.33231129,4.02727211 C5.44381079,4.04045108 5.55967537,4.02237859 5.65924754,3.97050268 C5.78058589,3.90728609 5.87312955,3.79658538 5.93059128,3.67241796 C5.98805302,3.54825055 6.01251755,3.41097841 6.02020233,3.27437558 C6.02999411,3.10032008 6.01295905,2.92340067 5.95574612,2.75872587 C5.89359661,2.57984235 5.78093824,2.41475916 5.62197875,2.3118329 C5.54249903,2.26036951 5.4522296,2.22502018 5.35843622,2.21204695 C5.26464283,2.19907423 5.16740007,2.20878288 5.07914162,2.24307617 C5.02884147,2.26261981 4.98181592,2.28986622 4.93733795,2.32042362"/>
      <path fill="#000" fill-rule="nonzero" d="M3.28155642,3.8050771 C3.18943653,3.88125919 3.10101823,3.96191712 3.0167177,4.04667085 C2.97011209,4.09352691 2.92343151,4.14379605 2.90252243,4.20648874 C2.88393068,4.26223357 2.88746598,4.32267648 2.87834723,4.38072781 C2.87522394,4.40061229 2.87059031,4.42039983 2.87050554,4.44052822 C2.8704648,4.45059216 2.87158077,4.46071436 2.87453905,4.4703338 C2.87749682,4.47995377 2.88234258,4.48907148 2.88921671,4.49642259 C2.90065397,4.50865328 2.91697042,4.51528608 2.93337865,4.51862801 C2.94978688,4.52196942 2.96663146,4.52236647 2.98327947,4.52416918 C3.05835868,4.53228912 3.12756949,4.56868935 3.18973478,4.61156459 C3.25190006,4.65444034 3.30909273,4.70438875 3.37284096,4.74487293 C3.51366778,4.83430721 3.68187215,4.87403132 3.84857623,4.88039237 C4.01528032,4.88675343 4.18158351,4.86128033 4.34517006,4.828567 C4.47515193,4.80257413 4.60474036,4.77179706 4.72806265,4.72319089 C4.91692222,4.64875428 5.08713716,4.53410884 5.24980682,4.41267024 C5.32369906,4.35750707 5.39655949,4.30061028 5.46289958,4.23656298 C5.48541702,4.2148237 5.50720229,4.19224443 5.53135558,4.17233881 C5.55550882,4.15243267 5.58230992,4.13512076 5.61210488,4.12553483 C5.65752155,4.11092338 5.70675878,4.11511716 5.75381522,4.12298236 C5.78925665,4.12890615 5.82476841,4.13685437 5.860673,4.13542396 C5.87862534,4.13470721 5.89659352,4.13159784 5.91327226,4.12492018 C5.929951,4.11824045 5.94532257,4.1078893 5.95675689,4.09403121 C5.97178251,4.07582001 5.97944357,4.05203412 5.97952889,4.0284251 C5.9796107,4.00481556 5.97237572,3.98145199 5.96039465,3.96110806 C5.93643256,3.92042072 5.89499758,3.89288193 5.85184848,3.87370389 C5.79274791,3.84743618 5.72879904,3.83444438 5.66593046,3.8192652 C5.47280474,3.77263655 5.28513594,3.70373079 5.1071843,3.61538504 C5.01871956,3.57146561 4.93271161,3.52279756 4.84565966,3.47614054 C4.75616521,3.42817429 4.66494667,3.3820783 4.56777449,3.35262388 C4.35051476,3.28676871 4.11304733,3.30836618 3.89859111,3.38284559 C3.66036564,3.46558004 3.44495106,3.61298624 3.28155652,3.80507607 L3.28155652,3.8050771" opacity=".3"/>
      <path fill="url(#gh-linux-g)" fill-rule="nonzero" d="M3.74364085,3.53220043 C3.83477502,3.42976043 3.8971081,3.30477158 3.98466284,3.19925625 C4.02844021,3.14649806 4.07894532,3.09842971 4.13841317,3.06432052 C4.19788102,3.03021183 4.26691189,3.01063622 4.33521173,3.01655073 C4.41124377,3.02313506 4.48240619,3.06101417 4.53807217,3.11322061 C4.59373816,3.16542705 4.63500237,3.23131831 4.66794605,3.30015807 C4.69949039,3.36607408 4.72455219,3.43630351 4.76999931,3.49352671 C4.81848719,3.5545786 4.88651177,3.59625341 4.94795471,3.64424493 C4.97867618,3.66824069 5.00815563,3.69421706 5.03243865,3.72471206 C5.05672167,3.75520707 5.0757332,3.79050639 5.08353908,3.82869901 C5.09146583,3.86748309 5.08751748,3.90836999 5.07399032,3.94557257 C5.06046315,3.98277566 5.03754954,4.0163063 5.00903773,4.04376723 C4.9520141,4.09868908 4.8742685,4.1283116 4.79587786,4.13940271 C4.63909656,4.1615839 4.48057544,4.11486655 4.32229264,4.11921915 C4.16208594,4.1236228 4.00560353,4.18025455 3.8454433,4.17439728 C3.76536321,4.17146839 3.68414482,4.15190258 3.61833817,4.10617631 C3.58543488,4.08331292 3.55676919,4.05406733 3.5360492,4.01977404 C3.51532915,3.98548076 3.50270275,3.9460908 3.50135304,3.90604647 C3.50006546,3.86784095 3.50898687,3.82968494 3.52425175,3.79463777 C3.53951668,3.75959061 3.56100112,3.72751307 3.58520789,3.69792664 C3.63362136,3.63875429 3.69282362,3.58932205 3.74364085,3.53220043"/>
      <path fill="#7C7C7C" fill-rule="nonzero" d="M5.52995977,0.695435123 C5.39777223,0.788713288 5.45552073,0.905194409 5.51237088,1.02208566 C5.56922104,1.13897692 5.38734688,1.47598918 5.38542497,1.49052478 C5.38351944,1.50506038 5.74342131,1.31968615 5.84149994,1.19927997 C5.95733083,1.05708043 6.25009087,1.39165714 6.23413706,1.34075431 C6.23425589,1.24966572 5.6621473,0.602156958 5.52995977,0.695435123 Z"/>
      <g fill-rule="nonzero" transform="translate(4.899 2.714)">
        <path fill="#020204" d="M0.444588453,0.0390321045 C0.379684866,0.0428943208 0.316431991,0.0612978589 0.261368113,0.0900958637 C0.206303614,0.118893868 0.159353615,0.157914629 0.122494129,0.202455419 C0.0487751561,0.291537515 0.0164028253,0.40081297 0.0111843653,0.50882302 C0.00726710591,0.589898623 0.0180740237,0.67203234 0.0504469754,0.748588274 C0.082819927,0.825144207 0.137414479,0.896000665 0.212647587,0.947758489 C0.28963384,1.00072242 0.387494553,1.03251274 0.487343073,1.03649871 C0.587191594,1.04048468 0.688450576,1.01656111 0.77049388,0.969123918 C0.83585686,0.93133092 0.888576591,0.87931424 0.926107785,0.820970023 C0.963638358,0.76262529 0.986250443,0.698065947 0.996587414,0.632474788 C1.01484582,0.516619644 0.994197327,0.395639456 0.929732026,0.291787606 C0.865267346,0.187935239 0.75587586,0.102405453 0.623879118,0.0620110024 C0.566707618,0.0445150079 0.505361225,0.0354158531 0.444588453,0.0390321045"/>
        <path fill="#141413" d="M0.599461742,0.392521838 C0.545705893,0.410137464 0.460615073,0.39905873 0.437046332,0.442885345 C0.423082637,0.468851917 0.442801165,0.5115967 0.474507375,0.522326855 C0.538601437,0.544016628 0.637898064,0.504737527 0.663774946,0.451419863 C0.675013942,0.428262035 0.657976657,0.391552417 0.630267789,0.381876766 C0.620015248,0.378298157 0.609807404,0.389131442 0.599461742,0.392521838 L0.599461742,0.392521838 Z"/>
        <path fill="url(#gh-linux-h)" d="M0.845842457,0.508543022 C0.917925617,0.448669388 0.794556158,0.289932814 0.698402029,0.224935684 C0.628758,0.177858928 0.425830927,0.12858602 0.434561263,0.179816334 C0.443291598,0.231046648 0.534502903,0.296686793 0.595638844,0.346754833 C0.670902372,0.408391989 0.8116071,0.536979557 0.845842457,0.508543022 Z"/>
      </g>
      <g transform="translate(8.611 2.663)">
        <mask id="gh-linux-k" fill="#fff">
          <use xlink:href="#gh-linux-i"/>
        </mask>
        <path fill="url(#gh-linux-j)" fill-rule="nonzero" d="M-4.21543635,0.179816247 C-4.09251856,0.0777103857 -3.94931428,0.000125730868 -3.79664938,-0.0470737494 C-3.48284745,-0.144091695 -3.12632142,-0.105706215 -2.84896463,0.0702406841 C-2.75320435,0.130988345 -2.66784576,0.206471211 -2.5787977,0.27668981 C-2.48974964,0.346908925 -2.3951671,0.412884242 -2.28819557,0.450532343 C-2.23039846,0.470873692 -2.16865869,0.482680524 -2.10771818,0.476314828 C-2.05266329,0.470563787 -1.99946886,0.449923876 -1.95382561,0.418605891 C-1.90818288,0.387287391 -1.87004491,0.34546098 -1.84138098,0.298105774 C-1.78405311,0.203396392 -1.76557995,0.088516341 -1.77546083,-0.0217507079 C-1.79522259,-0.242284806 -1.9196138,-0.437024558 -2.0239251,-0.632332041 C-2.05658738,-0.693487065 -2.08768106,-0.755744032 -2.12705504,-0.812809438 C-2.24788569,-0.987932329 -2.44021529,-1.10341002 -2.64193024,-1.17107976 C-2.84364467,-1.23875002 -3.05683525,-1.26319491 -3.26793002,-1.28978542 C-3.36207404,-1.30164433 -3.4573298,-1.31401992 -3.55153735,-1.30267666 C-3.65981332,-1.28963949 -3.76171504,-1.24590363 -3.8673728,-1.21888358 C-3.91752736,-1.20605731 -3.96862897,-1.19697981 -4.01835653,-1.18258648 C-4.06808403,-1.16819367 -4.1169981,-1.14808952 -4.15742576,-1.11575364 C-4.21645821,-1.06853714 -4.25359732,-0.997624481 -4.26965712,-0.923757661 C-4.28571698,-0.84989084 -4.28205938,-0.772958998 -4.27025579,-0.698293952 C-4.24664889,-0.548963344 -4.19080005,-0.40313245 -4.19609938,-0.252040383 C-4.19973884,-0.148277739 -4.23231279,-0.0464008265 -4.22832749,0.0573494414 C-4.22715903,0.0877660706 -4.22283128,0.118061007 -4.21543625,0.14758814" mask="url(#gh-linux-k)"/>
      </g>
      <path fill="url(#gh-linux-l)" fill-rule="nonzero" d="M5.4352622,1.89567368 C5.41066828,1.92660493 5.38844223,1.96024901 5.37080598,1.99719221 C5.48148555,2.02103947 5.58733039,2.06658577 5.68180721,2.12932745 C5.86460864,2.25072531 6.00341793,2.4282238 6.1007726,2.62564029 C6.12350037,2.60047298 6.14419133,2.57346479 6.162006,2.54345862 C6.06416095,2.33782783 5.92254756,2.15182783 5.73337218,2.02619751 C5.64249872,1.96584845 5.54131071,1.92029905 5.4352622,1.89567368 Z"/>
      <path fill="url(#gh-linux-m)" fill-rule="nonzero" d="M3.30176164,1.99654095 C3.28929271,1.99628312 3.27717649,1.99739693 3.26469932,1.99800539 C3.25668045,1.99836635 3.24849966,1.99871699 3.24052824,1.99946984 C3.31339315,2.00609027 3.38581306,2.02566948 3.45162233,2.05523014 C3.5412736,2.0954998 3.62043099,2.15283695 3.69011022,2.21810841 C3.81921344,2.33904528 3.91519235,2.48829338 3.98016318,2.64658186 C3.96411049,2.52463741 3.92724772,2.4091788 3.87381043,2.30321639 C3.84836002,2.27375629 3.82195566,2.24500779 3.79324016,2.21810841 C3.72356093,2.15283695 3.64440355,2.0954998 3.55475217,2.05523014 C3.47630741,2.01999373 3.38904309,1.99810234 3.30176164,1.99653476 L3.30176164,1.99654095 Z"/>
      <g fill-rule="nonzero" transform="translate(3.042 2.766)">
        <path fill="#020204" d="M0.0762207561,0.339471972 C0.046012206,0.464212554 0.0449146285,0.59509146 0.107589394,0.71403921 C0.14897505,0.792582662 0.217218074,0.863840776 0.300167175,0.925075718 C0.354480218,0.965170628 0.416114232,1.00160565 0.488164681,1.02523412 C0.560215129,1.04886259 0.6436911,1.05891575 0.721184787,1.04560318 C0.792716483,1.03331487 0.855261358,1.00180061 0.901418879,0.962443347 C0.947575589,0.923085526 0.978346729,0.87618408 1.00027393,0.828004534 C1.06500827,0.685766589 1.05460564,0.530189409 0.990336465,0.387852592 C0.943510817,0.284148729 0.865959492,0.184115308 0.744628459,0.114191395 C0.686740172,0.0808302572 0.618980992,0.0546939132 0.545344252,0.0427244296 C0.4717067,0.0307543907 0.392012987,0.0335566573 0.323105897,0.0549794167 C0.246608311,0.0787623011 0.187403255,0.124024601 0.148640582,0.175031965 C0.109877096,0.226038772 0.0899559005,0.282754539 0.0762207561,0.339471972"/>
        <path fill="url(#gh-linux-n)" d="M0.461721341,0.249242318 C0.481355154,0.284441454 0.547301544,0.297223011 0.583494003,0.325617277 C0.618647335,0.353196136 0.65553065,0.381748706 0.674823499,0.415878592 C0.711753088,0.481208898 0.638389119,0.578032905 0.715414386,0.624173934 C0.739591942,0.638657403 0.788049343,0.638970679 0.811817743,0.624173934 C0.904802536,0.566287269 0.884145833,0.449520789 0.847334769,0.367276345 C0.813928469,0.292639403 0.731450222,0.221948963 0.629830124,0.186469323 C0.58284049,0.170063426 0.512054042,0.156425358 0.471869063,0.179810537 C0.445973701,0.194880011 0.449600091,0.227511837 0.461721341,0.249242318 Z"/>
      </g>
      <g fill-rule="nonzero" transform="translate(2.836 3.333)">
        <path fill="url(#gh-linux-o)" d="M0.0387605118,1.18762172 C0.0419296949,1.20285349 0.0476559334,1.21754951 0.0556268981,1.23091051 C0.0693268342,1.25387394 0.0893470372,1.27248786 0.110969312,1.28821982 C0.132591587,1.30395177 0.155975167,1.31706887 0.178613633,1.33129977 C0.298948021,1.40694301 0.39700995,1.51327513 0.484122368,1.6255857 C0.600996591,1.77626731 0.704403436,1.9434791 0.860511074,2.05300052 C0.970745688,2.1303387 1.10264538,2.17443654 1.23662906,2.18789758 C1.39397014,2.20370534 1.55323159,2.17830907 1.70492717,2.13364865 C1.84551308,2.092259 1.98147522,2.03415095 2.10621403,1.95722426 C2.3433359,1.81099065 2.54138365,1.59664538 2.80285781,1.50050868 C2.85994126,1.4795207 2.91935442,1.46450653 2.97438869,1.4386173 C3.02942243,1.41272808 3.0811983,1.37395328 3.10748303,1.31910723 C3.13274884,1.26638669 3.13176859,1.2055359 3.13999629,1.14765577 C3.14879843,1.08573449 3.16854988,1.02586756 3.17938419,0.964269076 C3.190218,0.902670594 3.19151073,0.836783453 3.16487484,0.780195022 C3.14281793,0.733333808 3.10272101,0.696254469 3.05659717,0.67269495 C3.01047334,0.649134915 2.95856804,0.638431574 2.90683754,0.635891999 C2.80337681,0.630812849 2.70121805,0.657301259 2.59806186,0.666720117 C2.46143871,0.67919523 2.32384584,0.661656437 2.1867152,0.665740382 C2.01612301,0.670824688 1.84801574,0.709296282 1.67754824,0.717564725 C1.48307002,0.726998021 1.28902243,0.697015568 1.09447527,0.689132316 C1.0102147,0.685718715 0.925344124,0.686492189 0.842228765,0.700750419 C0.759113406,0.715010196 0.677466618,0.743220876 0.608072182,0.791136594 C0.540447713,0.837830221 0.486589442,0.901496975 0.42449114,0.955322038 C0.393441964,0.982234828 0.360061328,1.0068504 0.323100331,1.02480068 C0.286139333,1.04275148 0.245366653,1.05388332 0.204286491,1.05301084 C0.183165428,1.05254676 0.161443168,1.0490455 0.141310193,1.05544471 C0.128732723,1.059441 0.117565658,1.06715254 0.108126484,1.07637648 C0.0986873097,1.08560042 0.090863202,1.0963347 0.083488844,1.10727988 C0.0663415833,1.13273029 0.051360464,1.15963947 0.0387605118,1.18762172"/>
        <path fill="#D9B30D" d="M0.802182326,1.39727767 C0.782254424,1.47957794 0.794344863,1.5691994 0.835369025,1.64327713 C0.876393188,1.71735485 0.945944484,1.77515454 1.02627853,1.80193016 C1.12826141,1.83592128 1.24319045,1.81927404 1.33849257,1.76954066 C1.39373732,1.7407112 1.44426114,1.7001404 1.47613902,1.64659688 C1.49207801,1.61982538 1.50315808,1.5900265 1.50731097,1.55914733 C1.51146401,1.52826816 1.50858514,1.49631541 1.49777728,1.46709251 C1.48593203,1.43506448 1.46476224,1.40683936 1.43868109,1.38479688 C1.41259999,1.36275389 1.38171892,1.34675225 1.34929651,1.33603292 C1.28445166,1.31459478 1.21466368,1.31416679 1.14644554,1.31744323 C1.043047,1.32240894 0.94003519,1.33540692 0.838643917,1.35628094"/>
        <path fill="#604405" d="M0.467503493,0.756969644 C0.398460318,0.797781771 0.331960637,0.84275777 0.26652902,0.88913943 C0.232666046,0.913143439 0.197732687,0.939103308 0.179870993,0.976571447 C0.167211741,1.00312638 0.164310335,1.0332429 0.1639072,1.06265813 C0.163504993,1.09207337 0.165394334,1.12164795 0.16152593,1.15081051 C0.158883741,1.17072748 0.153568114,1.19031908 0.15268063,1.21039074 C0.152237171,1.22042683 0.152922985,1.23057585 0.155569299,1.24026646 C0.158216645,1.24995706 0.162886472,1.25919286 0.16977452,1.26650529 C0.178672366,1.27595096 0.19080947,1.28176388 0.203222139,1.28554875 C0.215634807,1.28933362 0.228521873,1.29128278 0.241154362,1.29425189 C0.301725774,1.30848949 0.354438323,1.34564979 0.400702827,1.38725756 C0.446967331,1.42886534 0.488511939,1.47568478 0.536775823,1.51495563 C0.667609303,1.621411 0.840518149,1.66545934 1.00916706,1.66823457 C1.17781597,1.67100877 1.34455615,1.63571461 1.50910502,1.59864971 C1.63834344,1.56953819 1.76770221,1.5391066 1.89199762,1.49327359 C2.08292991,1.42286833 2.26021008,1.31631963 2.41374179,1.18275295 C2.48335285,1.12219402 2.54869861,1.05571543 2.62683454,1.00664569 C2.69597935,0.963222308 2.77341426,0.934559919 2.84373383,0.893066102 C2.85002114,0.889353425 2.85627494,0.885526788 2.8618914,0.880863252 C2.86750837,0.876196622 2.87250038,0.870648231 2.87575825,0.86411495 C2.8813876,0.852825315 2.88139791,0.839300339 2.87776413,0.827219182 C2.87413396,0.815138025 2.86712473,0.804330007 2.85920074,0.794514099 C2.85043521,0.783655548 2.84046409,0.773806638 2.82986285,0.764732235 C2.75641479,0.701863707 2.65677182,0.679008049 2.56039411,0.671365089 C2.46401645,0.663722129 2.36647517,0.66912717 2.27111669,0.653194625 C2.18146341,0.638216032 2.09614292,0.604784915 2.00959205,0.577017694 C1.91873756,0.547869563 1.82587761,0.524807645 1.73170687,0.509444894 C1.51024791,0.473316928 1.28219852,0.480237979 1.0625235,0.52597817 C0.85328909,0.569544383 0.651484318,0.648216027 0.467501379,0.756969644"/>
        <path fill="url(#gh-linux-p)" d="M0.445490923,0.523594837 C0.346001933,0.590557108 0.256446779,0.672252007 0.180652203,0.765188585 C0.137301635,0.818343303 0.0979560669,0.876096586 0.0761253662,0.94112053 C0.0589544372,0.992265246 0.0531027412,1.04639196 0.042281729,1.09924554 C0.0382282066,1.11904546 0.0334442149,1.13891087 0.0335279272,1.15912176 C0.0335714257,1.16922694 0.0348532278,1.17937699 0.0379873467,1.18898406 C0.0411219812,1.19859113 0.0461505972,1.20765264 0.053151006,1.21494032 C0.0647365721,1.22700188 0.0810171803,1.23355579 0.0973990105,1.2369235 C0.113780789,1.24029069 0.130596435,1.24079603 0.147213763,1.24268692 C0.222222077,1.25121318 0.291310165,1.28765106 0.353490817,1.33045875 C0.415671416,1.37326644 0.472972629,1.42304004 0.536775256,1.46339066 C0.677748369,1.55254598 0.845884257,1.59221491 1.01256019,1.59863785 C1.17923607,1.60506078 1.34553346,1.57974393 1.50910445,1.54708474 C1.63909474,1.52113002 1.7686786,1.49032614 1.89199705,1.44170862 C2.08084916,1.36725448 2.25107008,1.25262349 2.41374122,1.13118798 C2.48763434,1.07602584 2.56049409,1.01912802 2.62683398,0.955080714 C2.64935137,0.933341438 2.67113664,0.910762169 2.69528993,0.890856028 C2.71944317,0.870950402 2.74624432,0.853637979 2.77603928,0.844052566 C2.82145595,0.829441116 2.87069297,0.833634895 2.91774962,0.8415001 C2.95319125,0.847423884 2.98870302,0.855372109 3.02460719,0.853941697 C3.04255954,0.853224943 3.06052787,0.850115576 3.07720656,0.843437912 C3.09388525,0.836758186 3.10925676,0.826407034 3.1206913,0.812548948 C3.13571681,0.794337747 3.14337782,0.770551857 3.14346347,0.746942836 C3.14356552,0.723333298 3.13631032,0.699969725 3.1243292,0.679625798 C3.10036696,0.638938458 3.05893193,0.611399669 3.01578288,0.592221625 C2.9566822,0.565953914 2.89273339,0.552962119 2.82986486,0.537782939 C2.63673914,0.491154283 2.44907034,0.422248528 2.2711187,0.33390278 C2.18265399,0.289983347 2.09664599,0.241315297 2.00959406,0.19465828 C1.9200996,0.146692029 1.82888106,0.100596039 1.73170888,0.0711416118 C1.51444916,0.00528644079 1.27698175,0.0268839131 1.06252551,0.101363325 C0.824300037,0.184097774 0.608885413,0.331503977 0.44549082,0.523593806 L0.44549082,0.523594837"/>
        <path fill="#F6DA4A" d="M1.97176868,0.571334203 C1.96008942,0.556574761 1.94334921,0.546171013 1.92529348,0.540857758 C1.90723775,0.535544504 1.88792594,0.535164985 1.86937477,0.538341388 C1.83227239,0.544695223 1.79901458,0.564664789 1.76801124,0.586013203 C1.67990981,0.64667836 1.60203062,0.72153729 1.53404499,0.804121169 C1.44405261,0.913436844 1.36981107,1.03986126 1.34492788,1.17925066 C1.34073513,1.20273696 1.33796114,1.2267585 1.34089498,1.25043558 C1.34382903,1.27411216 1.35289889,1.2976067 1.36970474,1.31454064 C1.38446114,1.3294094 1.40454859,1.33847968 1.42528389,1.3414591 C1.4460192,1.34443956 1.4673558,1.34156223 1.48720089,1.33484022 C1.52689112,1.32142353 1.55985526,1.29361815 1.59107522,1.26567819 C1.76309457,1.111732 1.91864284,0.927011838 1.98088423,0.704714734 C1.98713019,0.682407212 1.9924354,0.659561352 1.99229494,0.636396304 C1.99214772,0.613231257 1.98614365,0.589499511 1.97176857,0.571333687"/>
        <path fill="url(#gh-linux-q)" d="M1.5599074,0.252144972 C1.57183386,0.290426806 1.63353083,0.284081736 1.66917666,0.302442475 C1.70045546,0.318553435 1.72561298,0.353864611 1.76078235,0.354879925 C1.79434754,0.355849347 1.84658543,0.34325615 1.85095195,0.309962195 C1.85672052,0.265975728 1.7924881,0.238023389 1.75115517,0.22190882 C1.69796693,0.201171451 1.62982228,0.190650135 1.57992853,0.218392089 C1.56849503,0.224749019 1.5560163,0.239656452 1.5599074,0.252145487 L1.5599074,0.252144972 Z" opacity=".8"/>
        <path fill="url(#gh-linux-r)" d="M0.970818859,0.230495934 C0.925020915,0.215617378 0.849255472,0.296368122 0.87397675,0.337692289 C0.88076631,0.349041224 0.901559369,0.36343146 0.915559258,0.355735904 C0.936662222,0.344135332 0.953925659,0.302645641 0.976790598,0.286383081 C0.992057955,0.275524529 0.988637135,0.236284618 0.970818859,0.230495934 Z" opacity=".8"/>
        <path fill="url(#gh-linux-s)" d="M3.15774083,0.834246026 C3.15774083,0.935531184 3.0917719,1.01763834 3.01039488,1.01763834 C2.92901843,1.01763834 2.86304949,0.935531184 2.86304949,0.834246026 C2.86304949,0.732960867 2.92901843,0.650852924 3.01039488,0.650852924 C3.0917719,0.650852924 3.15774083,0.732960867 3.15774083,0.834246026 Z" transform="rotate(6.357 3.01 .834)"/>
      </g>
      <g transform="translate(6.91 2.766)">
        <mask id="gh-linux-v" fill="#fff">
          <use xlink:href="#gh-linux-t"/>
        </mask>
        <path fill="url(#gh-linux-u)" fill-rule="nonzero" d="M-3.79559023,-0.0759465234 C-3.65711921,-0.158415928 -3.48851723,-0.177547048 -3.32806617,-0.162351366 C-3.16761511,-0.147156201 -3.01220834,-0.100036646 -2.85669525,-0.0577152124 C-2.74265287,-0.0266792878 -2.62714971,0.0021769854 -2.52021706,0.052518835 C-2.41328435,0.102860169 -2.31396285,0.177083303 -2.25507333,0.279557338 C-2.24562709,0.295994704 -2.23727016,0.3130591 -2.22726671,0.329163356 C-2.21726331,0.345268127 -2.20544906,0.360549406 -2.19032268,0.371978266 C-2.1751963,0.383407126 -2.1564448,0.390763385 -2.13751463,0.389728992 C-2.12804952,0.389213342 -2.11866186,0.386588685 -2.11048551,0.381794174 C-2.10230922,0.376998632 -2.09537981,0.37000075 -2.09099462,0.361596691 C-2.0859526,0.351933931 -2.08439023,0.340740723 -2.08495436,0.329856389 C-2.08551848,0.318972055 -2.08811116,0.308299653 -2.09099462,0.297788649 C-2.12993659,0.155832348 -2.22171131,0.0354095777 -2.29153544,-0.0941773188 C-2.33343713,-0.171942451 -2.36769499,-0.25365385 -2.4100369,-0.331180237 C-2.55536194,-0.597265283 -2.79386576,-0.806384443 -3.06498447,-0.942087461 C-3.33610319,-1.07779099 -3.63877085,-1.14299129 -3.94143814,-1.1606889 C-4.2921409,-1.18119526 -4.64374072,-1.13957563 -4.98971893,-1.07864955 C-5.13970076,-1.05223797 -5.2919304,-1.02114894 -5.42470484,-0.946562785 C-5.491092,-0.909269966 -5.55193893,-0.861139223 -5.5994314,-0.801620355 C-5.64692387,-0.742101488 -5.68072239,-0.670891295 -5.69161152,-0.59552909 C-5.70210612,-0.522897251 -5.69115775,-0.448023882 -5.66576195,-0.379171755 C-5.64036702,-0.310320144 -5.60088053,-0.247242778 -5.55456018,-0.190322269 C-5.46191938,-0.0764817678 -5.34310951,0.0125142151 -5.23370066,0.11034895 C-5.12431547,0.208162542 -5.02279941,0.316198375 -4.90043893,0.3971956 C-4.83925869,0.437694212 -4.77293608,0.471190817 -4.7022549,0.490871619 C-4.63157376,0.510551906 -4.55633026,0.516095656 -4.48445338,0.501369216 C-4.40994267,0.486102891 -4.3409641,0.44954642 -4.28058488,0.403294189 C-4.2202057,0.357041957 -4.1678572,0.301192453 -4.11823685,0.243549519 C-4.01899614,0.128263136 -3.92628423,0.00189131546 -3.79559023,-0.0759465234" mask="url(#gh-linux-v)"/>
      </g>
      <path fill="#020204" fill-rule="nonzero" d="M7.9977963,7.63611877 C8.31155863,7.88851022 8.51063959,8.26964445 8.57227958,8.66757546 C8.62035298,8.97792387 8.58910745,9.29640821 8.51913187,9.60256336 C8.44915625,9.908718 8.34111866,10.2046437 8.2338891,10.4998202 C8.19112916,10.6175275 8.14817853,10.7363538 8.13118787,10.8604295 C8.11419721,10.9845056 8.12495629,11.1158957 8.18479151,11.2259101 C8.25338442,11.3520267 8.38140637,11.4388843 8.5190274,11.4797603 C8.65489806,11.5201166 8.80165717,11.5192684 8.93918837,11.4849957 C9.07671963,11.4507226 9.20512811,11.3837526 9.31707577,11.2968202 C9.60148499,11.0759643 9.77309419,10.7322503 9.83952586,10.3783393 C9.90595804,10.0244288 9.87543416,9.65898833 9.81366654,9.30423371 C9.72943929,8.82048416 9.58772328,8.34764936 9.40733921,7.89095492 C9.27465512,7.55502667 9.11939418,7.22473189 8.90244854,6.93596341 C8.69015246,6.65338376 8.42254104,6.41551661 8.21456255,6.12974406 C8.07004548,5.93117045 7.95427789,5.7095174 7.78108848,5.53538507 C7.69449378,5.44831916 7.59337085,5.37386863 7.47890584,5.32940622 C7.36444084,5.2849438 7.23589767,5.27184785 7.1176926,5.30511499 C6.96189167,5.34896275 6.83461252,5.47172811 6.76690065,5.61873727 C6.69918883,5.76574642 6.68734415,5.93447628 6.71368828,6.09417145 C6.74767449,6.30019207 6.84189313,6.49135476 6.94812274,6.67111799 C7.06809788,6.87414165 7.20708167,7.06956412 7.38827927,7.22049479 C7.5773757,7.37800464 7.80603453,7.48186474 7.9977963,7.63611877"/>
      <g transform="translate(19.027 5.705)">
        <mask id="gh-linux-x" fill="#fff">
          <use xlink:href="#gh-linux-w"/>
        </mask>
        <path fill="#838384" fill-rule="nonzero" d="M-11.7680927,1.44476943 C-11.7426412,1.46888843 -11.716598,1.49337509 -11.6893473,1.51567127 C-11.4968333,1.67318111 -11.3943782,1.85008351 -11.1991506,2.00433754 C-10.8797174,2.25672899 -10.5555936,2.69239885 -10.4928394,3.09032986 C-10.443897,3.40067827 -10.5086372,3.5693411 -10.5875795,3.93536628 C-10.6665212,4.30139094 -10.8904572,4.8196189 -11.0114269,5.17251873 C-11.0596663,5.31324469 -10.9137191,5.25518047 -10.9328868,5.40351949 C-10.9423069,5.4764241 -10.9432634,5.55008673 -10.9347032,5.62314346 C-10.9335115,5.60916729 -10.9326663,5.59465382 -10.9310652,5.58076015 C-10.907819,5.37848418 -10.8458464,5.18397853 -10.7783632,4.99317009 C-10.6484775,4.62591715 -10.4993768,4.2660478 -10.3966078,3.88927132 C-10.2938383,3.51249485 -10.3052485,3.24138686 -10.3588756,2.91759391 C-10.4263126,2.51041782 -10.6632018,2.13447567 -10.9986817,1.88629449 C-11.2358901,1.7108122 -11.5156125,1.59832218 -11.7680927,1.44476943 L-11.7680927,1.44476943 Z" mask="url(#gh-linux-x)"/>
      </g>
      <path fill="url(#gh-linux-y)" fill-rule="nonzero" d="M2.36769206,6.92161228 C2.42007411,7.00019059 2.33511168,7.2711346 3.55597142,7.09772212 C3.55597142,7.09772212 3.34157316,7.12130278 3.1302242,7.17012914 C2.80158898,7.28013784 2.51535283,7.4030512 2.29452861,7.56590266 C2.07575492,7.72687148 1.91554996,7.93701266 1.71480359,8.11749573 C1.71480359,8.11749573 2.0398949,7.5235343 2.12093842,7.34466986 C2.20198134,7.16580541 2.10737045,7.17399032 2.17146815,6.91082282 C2.23556585,6.64765584 2.3924995,6.39481268 2.3924995,6.39481268 C2.3924995,6.39481268 2.26438446,6.76664149 2.36769206,6.92161228 L2.36769206,6.92161228 Z" opacity=".25"/>
      <path fill="url(#gh-linux-z)" fill-rule="nonzero" d="M6.29350132,6.85071053 C6.04469518,7.02403999 5.89890502,7.00351868 5.59702099,7.03742058 C5.29513697,7.07132249 4.47814467,7.05904848 4.47814467,7.05904848 C4.47814467,7.05904848 4.59641976,7.05684666 4.85856988,7.10567301 C5.12072,7.15450143 5.65540698,7.20118784 5.95647886,7.31578376 C6.25755074,7.43037969 6.36737226,7.46308426 6.55036448,7.57879399 C6.81082276,7.74348632 7.00197926,8.00146896 7.25097774,8.18195203 C7.25097774,8.18195203 7.26303208,7.94249978 7.16250875,7.76363533 C7.06198542,7.58477089 6.79173753,7.30290284 6.71223311,7.03973534 C6.6327287,6.77656835 6.59495942,6.25945471 6.59495942,6.25945471 C6.59495942,6.25945471 6.54230746,6.67738107 6.29350132,6.85071053 Z" opacity=".42"/>
      <path fill="url(#gh-linux-A)" fill-rule="nonzero" d="M3.95347315,6.48057923 C3.94422399,6.55565474 3.932234,6.63039249 3.91753494,6.70459345 C3.91028893,6.74117158 3.90232833,6.77781004 3.88870765,6.81252203 C3.87508697,6.84723402 3.85549001,6.88018249 3.82779643,6.90515282 C3.80352407,6.92703854 3.77394238,6.94207077 3.74422559,6.9556736 C3.62829341,7.00874221 3.50422139,7.04398429 3.37770292,7.05978276 C3.42823267,7.06349029 3.47869601,7.06809865 3.52906044,7.07361249 C3.56079058,7.07708797 3.59259209,7.08093884 3.62351122,7.0888685 C3.6544303,7.09679765 3.68460153,7.10895564 3.71035824,7.12780934 C3.73860584,7.14848637 3.76078847,7.17670995 3.77735712,7.20754734 C3.81037056,7.26899165 3.82141145,7.33969857 3.8275154,7.40918236 C3.83532197,7.49804737 3.83589166,7.58754766 3.82921704,7.67650497 C3.83519095,7.61698404 3.84766425,7.55811747 3.86634382,7.50128875 C3.9000076,7.3988735 3.95421863,7.30287241 4.02721312,7.22353816 C4.05617794,7.19205774 4.08807962,7.16318858 4.12306003,7.13856424 C4.23022302,7.06312778 4.36634571,7.0299942 4.49619035,7.04774131 C4.36423701,7.05356919 4.23068425,7.01211559 4.12522215,6.9325957 C4.07151151,6.89209709 4.02473491,6.84169336 3.9921969,6.78281854 C3.94188031,6.69177491 3.9277346,6.58136709 3.95347315,6.48057923" opacity=".2"/>
      <path fill="#000" fill-rule="nonzero" d="M3.63532244,8.2358926 C3.57192099,8.47718263 3.52831517,8.72367092 3.50508685,8.97206764 C3.47223873,9.32333647 3.48014586,9.6770897 3.46129066,10.0293867 C3.44529067,10.3283362 3.41018627,10.6304213 3.46211055,10.9252611 C3.48687065,11.0658555 3.53134853,11.2029627 3.59383636,11.3313182 C3.60376225,11.2823284 3.61103658,11.2328013 3.61561689,11.1830261 C3.63761497,10.9439688 3.59735794,10.7041479 3.58375953,10.4644662 C3.55992383,10.0443437 3.61808602,9.62447796 3.64177012,9.20434721 C3.65995198,8.88182069 3.65779775,8.55814892 3.6353245,8.2358926 L3.63532244,8.2358926" opacity=".11"/>
      <path fill="#838384" fill-rule="nonzero" d="M6.53262923,4.61506482 C6.42113699,4.71661532 6.58489497,4.86915998 6.66255542,5.04843178 C6.71083364,5.15987709 6.84441321,5.3168321 6.97361801,5.29168953 C7.07080767,5.27277705 7.13111136,5.13290243 7.12191268,5.03431794 C7.10416608,4.84411951 6.94366856,4.79956531 6.82710543,4.73423611 C6.73473246,4.68246436 6.61091517,4.54375974 6.53262923,4.61506482 L6.53262923,4.61506482 Z"/>
      <g transform="translate(6.394 10.707)">
        <path fill="url(#gh-linux-B)" fill-rule="nonzero" d="M3.71557452,2.22409567 C3.69139118,2.30397961 3.65456628,2.38115484 3.60704472,2.45154309 C3.5021749,2.60687586 3.34999374,2.72377519 3.19790153,2.83158466 C2.93849951,3.01545967 2.66824569,3.18417819 2.42676394,3.39314214 C2.26497108,3.53314774 2.11746974,3.69012388 1.98076779,3.85541746 C1.86385741,3.99678077 1.75393022,4.14517598 1.62065263,4.27089138 C1.48617569,4.3977376 1.32780665,4.50018843 1.15723077,4.55601112 C0.949770162,4.62390517 0.7305528,4.6206375 0.53069492,4.56938604 C0.390652282,4.53347259 0.254096481,4.4710501 0.16733544,4.35812952 C0.0802413371,4.24477527 0.0520236525,4.09245751 0.0419459836,3.94293559 C0.0241273815,3.67847175 0.0556958169,3.40822953 0.0844869628,3.13978591 C0.108403423,2.91673131 0.130461826,2.69350398 0.139479412,2.47090212 C0.155885806,2.06601294 0.129064974,1.66463946 0.0742509699,1.270812 C0.0650713531,1.20485576 0.0550815832,1.13838387 0.0606658148,1.07045012 C0.0662357496,1.00251791 0.0890158773,0.931828006 0.136711654,0.879386947 C0.180768096,0.830948361 0.242232768,0.802263283 0.303545471,0.788172639 C0.364858703,0.774082511 0.426912722,0.773229111 0.488488062,0.771594501 C0.633583831,0.767742598 0.779532643,0.759198798 0.922434114,0.771903891 C1.01260044,0.779926885 1.10101939,0.79637611 1.19106234,0.805044697 C1.34131873,0.819509703 1.49719112,0.811895619 1.64789283,0.767727644 C1.8101379,0.720177006 1.96487502,0.630998999 2.12971893,0.606462323 C2.19735454,0.596396325 2.26522101,0.59756685 2.33098849,0.606771713 C2.398102,0.61616582 2.46487026,0.634707036 2.51644206,0.675661483 C2.555636,0.70678713 2.5843223,0.749544288 2.60676778,0.795114315 C2.64020327,0.863000115 2.66073615,0.937965269 2.67248813,1.01484812 C2.68289993,1.08295617 2.6865938,1.15305101 2.70414712,1.21890979 C2.73302457,1.32725966 2.79844735,1.4193155 2.87715769,1.49424766 C2.9558675,1.56917981 3.04792472,1.62844291 3.13982626,1.68679796 C3.23138256,1.74493386 3.32345778,1.8026562 3.42124696,1.85058326 C3.4671424,1.87307642 3.51430919,1.89342035 3.55818507,1.91932298 C3.60206042,1.94522612 3.64294456,1.97713092 3.67207936,2.01912646 C3.71159894,2.0760908 3.72744988,2.15075791 3.71558828,2.22408381 L3.71558934,2.2240833" opacity=".2"/>
        <g transform="translate(21.4)">
          <mask id="gh-linux-E" fill="#fff">
            <use xlink:href="#gh-linux-C"/>
          </mask>
          <path fill="url(#gh-linux-D)" fill-rule="nonzero" d="M-16.6551957,2.41713842 C-16.6898164,2.50578119 -16.7390827,2.58868425 -16.8003919,2.66146666 C-16.935688,2.82208226 -17.1236011,2.92807767 -17.3107036,3.02344502 C-17.6298185,3.18610002 -17.9605093,3.32880092 -18.2605118,3.52447812 C-18.461513,3.65558154 -18.6470376,3.80946276 -18.8205156,3.97527869 C-18.9688778,4.11708855 -19.1095795,4.26855188 -19.2759616,4.38871167 C-19.4438402,4.50995226 -19.6379039,4.59776947 -19.8426921,4.6284991 C-20.0917643,4.6658739 -20.3491292,4.61752143 -20.5800186,4.51690425 C-20.7418058,4.4464005 -20.8974366,4.34555901 -20.990631,4.19569006 C-21.0841827,4.0452472 -21.1055213,3.86112983 -21.1057602,3.68397218 C-21.1061706,3.37062939 -21.048096,3.06054963 -20.9934248,2.7520132 C-20.9479976,2.49564403 -20.9047593,2.23869269 -20.8768812,1.97982674 C-20.8261738,1.50897771 -20.8265384,1.03346617 -20.8603856,0.561105775 C-20.8660541,0.48199686 -20.8726343,0.402120658 -20.8607981,0.323694462 C-20.8489784,0.245268267 -20.816723,0.167107116 -20.7566013,0.1153792 C-20.7010679,0.0675990983 -20.6266096,0.0464894306 -20.5534626,0.0424405491 C-20.4803157,0.0383926989 -20.4073255,0.0499973955 -20.3348365,0.0605898718 C-20.1640254,0.0855498959 -19.9918474,0.105188415 -19.8249017,0.149104238 C-19.7195627,0.176814222 -19.6169324,0.214037427 -19.5117889,0.242478602 C-19.3363349,0.289938486 -19.1525672,0.312681216 -18.9720382,0.291564329 C-18.7776811,0.268829849 -18.5889172,0.195819523 -18.3932921,0.200565563 C-18.3130271,0.202514719 -18.2333633,0.217670179 -18.1567898,0.241809805 C-18.0786488,0.266443422 -18.0016236,0.301719019 -17.9441973,0.3601576 C-17.9005532,0.404570509 -17.8701608,0.460471578 -17.8473211,0.518399666 C-17.8132975,0.604694676 -17.7949868,0.69665977 -17.7871433,0.789087402 C-17.7801949,0.870966387 -17.7812942,0.95380706 -17.7657783,1.03450211 C-17.7402521,1.16726026 -17.6705141,1.28835904 -17.5838324,1.39210209 C-17.4971506,1.49584514 -17.3935669,1.58394853 -17.2900972,1.67095669 C-17.1870147,1.75763895 -17.0832907,1.84394118 -16.9720919,1.91993248 C-16.919903,1.95559739 -16.8660526,1.98900324 -16.8165018,2.02825088 C-16.7669509,2.06749853 -16.7213819,2.11316808 -16.6904033,2.16826783 C-16.6483819,2.24300816 -16.63555,2.33367278 -16.6551808,2.41713842 L-16.6551797,2.41713842" mask="url(#gh-linux-E)"/>
        </g>
        <g transform="translate(21.4)">
          <mask id="gh-linux-G" fill="#fff">
            <use xlink:href="#gh-linux-F"/>
          </mask>
          <path fill="#CD8907" fill-rule="nonzero" d="M-16.8157866,2.25464482 C-16.8476145,2.33443904 -16.8926034,2.40896589 -16.9483838,2.47430129 C-17.0722676,2.61940511 -17.2438104,2.71430735 -17.4144146,2.7997273 C-17.705914,2.94567834 -18.0075546,3.0739297 -18.281806,3.25016743 C-18.4650483,3.36792171 -18.6345496,3.50622051 -18.7932171,3.65544696 C-18.9287902,3.78295321 -19.0574855,3.91925335 -19.2091438,4.02713191 C-19.3628553,4.1364713 -19.5400841,4.21517904 -19.7266978,4.24270597 C-19.9540637,4.27624434 -20.1887297,4.23274671 -20.4000445,4.14238013 C-20.5473754,4.07937547 -20.6897019,3.98923114 -20.7750275,3.85360134 C-20.8599184,3.718662 -20.8797715,3.55297653 -20.8801717,3.39355621 C-20.880861,3.11177066 -20.8276578,2.83300579 -20.777579,2.55570484 C-20.7359645,2.32527388 -20.6963481,2.09429117 -20.6711478,1.86149235 C-20.6253308,1.43823418 -20.6274156,1.01079615 -20.6560836,0.586031766 C-20.6608843,0.514863341 -20.6664085,0.443000335 -20.6554752,0.372513083 C-20.6445413,0.302026346 -20.6153561,0.231876329 -20.5613201,0.185313676 C-20.5106421,0.141644849 -20.4425639,0.12251012 -20.3757584,0.119004218 C-20.3089529,0.1154978 -20.2423371,0.126316646 -20.1761525,0.136056753 C-20.0202638,0.158998009 -19.8630288,0.176235147 -19.7104661,0.215633363 C-19.6142763,0.240473756 -19.5205152,0.273986862 -19.4245224,0.299578557 C-19.2641827,0.342324886 -19.0964521,0.362738427 -18.9316072,0.343707859 C-18.7541582,0.323222127 -18.5816537,0.257518042 -18.4030796,0.26189797 C-18.3298249,0.263692431 -18.2571239,0.277386541 -18.1870997,0.298977309 C-18.1158478,0.320946565 -18.045343,0.352319209 -17.992954,0.405374923 C-17.9534728,0.445358401 -17.9261578,0.49579513 -17.904484,0.547638036 C-17.8722177,0.62481739 -17.8512401,0.707356408 -17.8495276,0.790991696 C-17.8477383,0.878329349 -17.8668287,0.966050131 -17.8549904,1.05260039 C-17.8453797,1.12286488 -17.8156205,1.18914546 -17.7776099,1.24901755 C-17.7395998,1.30888964 -17.6933528,1.36302254 -17.6475368,1.41715493 C-17.5589863,1.52177871 -17.4701894,1.62840321 -17.3591287,1.70873267 C-17.2326821,1.80019036 -17.0826436,1.853705 -16.9520192,1.93908989 C-16.9130819,1.96454185 -16.8753957,1.99334398 -16.8479538,2.03090545 C-16.8016897,2.09423033 -16.7892368,2.18085174 -16.8157881,2.25464482 L-16.8157871,2.25464482" mask="url(#gh-linux-G)"/>
        </g>
        <g transform="translate(21.76 .464)">
          <mask id="gh-linux-I" fill="#fff">
            <use xlink:href="#gh-linux-H"/>
          </mask>
          <path fill="#F5C021" fill-rule="nonzero" d="M-17.1949571,1.70050512 C-17.2304085,1.78085938 -17.2764173,1.85578828 -17.3311813,1.92235736 C-17.458094,2.07662636 -17.6294625,2.18283404 -17.809958,2.25103746 C-18.1071,2.36331802 -18.4314904,2.37840267 -18.7231748,2.50624064 C-18.9009386,2.58414974 -19.0609228,2.7015354 -19.2229126,2.8124396 C-19.353856,2.90208841 -19.4876861,2.98838401 -19.6314696,3.05112394 C-19.7938703,3.12198795 -19.9665684,3.16171995 -20.1398524,3.18955848 C-20.2501135,3.20727193 -20.3616094,3.22032827 -20.4729402,3.21415245 C-20.5842716,3.207976 -20.6959696,3.18191353 -20.7942235,3.12513273 C-20.8687196,3.08208183 -20.9357473,3.02010124 -20.9755123,2.93968725 C-21.0196894,2.85035108 -21.027353,2.74549561 -21.0263416,2.6442615 C-21.0236482,2.37445978 -20.9658973,2.10758361 -20.96763,1.83777299 C-20.9691388,1.60290635 -21.0156787,1.37104724 -21.029061,1.13661906 C-21.054796,0.685803398 -20.9580592,0.227103229 -21.0431995,-0.215139107 C-21.0568287,-0.285935117 -21.0751506,-0.356642166 -21.0742913,-0.428940351 C-21.0737885,-0.465089761 -21.068437,-0.501444417 -21.0556706,-0.534873519 C-21.0429042,-0.568303256 -21.0224954,-0.598740082 -20.9952828,-0.619863935 C-20.9723692,-0.637651104 -20.9451602,-0.648473878 -20.9172875,-0.653336882 C-20.8894149,-0.658197979 -20.8608562,-0.657251177 -20.8329093,-0.652892075 C-20.7770155,-0.644214539 -20.7237645,-0.622254451 -20.6693311,-0.606048886 C-20.5136229,-0.559692441 -20.3491518,-0.560658306 -20.1909086,-0.525676195 C-20.0915833,-0.503718649 -19.9954259,-0.467756693 -19.8971438,-0.440891661 C-19.7321028,-0.395778133 -19.5600146,-0.376502768 -19.3907472,-0.396320797 C-19.2087193,-0.417632739 -19.0308087,-0.483715073 -18.8477641,-0.478949291 C-18.772734,-0.476998497 -18.698216,-0.463060173 -18.6258775,-0.44149914 C-18.5535196,-0.419932387 -18.481164,-0.389424392 -18.4264212,-0.334037744 C-18.3869745,-0.294126543 -18.3585637,-0.243125685 -18.3355316,-0.190351956 C-18.3019197,-0.113335647 -18.2785239,-0.0296790154 -18.279072,0.0554353105 C-18.2793667,0.0997126031 -18.286085,0.143607362 -18.2900768,0.187676231 C-18.2940669,0.2317451 -18.2952515,0.276871337 -18.2846899,0.3196598 C-18.2740759,0.362650967 -18.2520298,0.401421557 -18.2267728,0.436601289 C-18.2015158,0.471781657 -18.1728623,0.503958946 -18.1467247,0.538383143 C-18.0735275,0.634787289 -18.0212112,0.747152357 -17.9641817,0.855509084 C-17.9071516,0.963865812 -17.8432234,1.07109146 -17.7531649,1.14915561 C-17.6305929,1.25540332 -17.4715635,1.29785817 -17.3349209,1.38181537 C-17.294916,1.40639536 -17.2561358,1.43524423 -17.2280091,1.47454923 C-17.2054768,1.50603643 -17.1904295,1.54369755 -17.1846849,1.58298157 C-17.1789385,1.62226559 -17.1825101,1.66309182 -17.1949636,1.70052609 L-17.1949583,1.70052609" mask="url(#gh-linux-I)"/>
        </g>
        <path fill="url(#gh-linux-J)" fill-rule="nonzero" d="M0.686292117,0.291327646 C0.855224633,0.245587454 0.999095542,0.373687217 1.12161804,0.470378241 C1.20078419,0.537891225 1.31516612,0.520907787 1.41227173,0.524115643 C1.57319002,0.518277973 1.73328172,0.551074326 1.89425364,0.53111662 C2.21110079,0.504337899 2.52172043,0.426457261 2.84007689,0.413041087 C2.99216674,0.403460831 3.16286948,0.394619501 3.29426786,0.483436038 C3.34753395,0.520330775 3.42560487,0.676360704 3.47817278,0.617757115 C3.4564995,0.453872809 3.3349521,0.29517233 3.17192532,0.251530317 C3.04430614,0.231449886 2.91462385,0.266553256 2.78573102,0.255196587 C2.40296734,0.246066493 2.02290772,0.174992431 1.63923753,0.195373486 C1.37231455,0.197683597 1.10571695,0.185317801 0.839183286,0.174921787 C0.734477004,0.153527997 0.697547719,0.246546047 0.640714871,0.282220757"/>
      </g>
      <path fill="#7C7C7C" fill-rule="nonzero" d="M8.22164905,8.22564218 C8.22174824,8.16368003 7.84647117,7.81920817 7.73612788,7.88265923 C7.6257846,7.94611069 7.71174073,8.0355994 7.7214456,8.10485897 C7.73115047,8.17411813 7.6745594,8.37197807 7.73327365,8.39824852 C7.79198791,8.42451897 7.90021594,8.29640965 7.99618543,8.22539282 C8.07346431,8.16820737 8.22154688,8.28760393 8.22164905,8.22563531 L8.22164905,8.22564218 Z" opacity=".75" transform="scale(-1 1) rotate(-84.237 0 16.932)"/>
      <path fill="#7C7C7C" fill-rule="nonzero" d="M2.33077519,5.7999054 C2.2589495,5.8114706 2.26991123,5.9187064 2.31612723,5.96343245 C2.35515976,6.00120653 2.4681461,6.03098285 2.50209806,5.99332596 C2.55722436,5.93218442 2.42926794,5.78404611 2.33077519,5.7999054 L2.33077519,5.7999054 Z" opacity=".25" transform="rotate(94.258 2.397 5.905)"/>
      <g fill-rule="nonzero" opacity=".35" transform="translate(7.58 11.016)">
        <path fill="url(#gh-linux-K)" d="M1.77814892,0.239268683 C1.74913975,0.18244357 1.69631938,0.139962284 1.63744229,0.115383325 C1.57856525,0.0908038507 1.51384477,0.0829541152 1.45004503,0.0834460451 C1.3224456,0.084430936 1.1955932,0.117663013 1.06846487,0.10666472 C0.961075813,0.0973737436 0.859175799,0.0570071377 0.754443476,0.0315144475 C0.646298223,0.0051910456 0.531585912,-0.00508069656 0.424187887,0.0241422036 C0.309406737,0.055374075 0.208160361,0.132099657 0.144749576,0.232743652 C0.0888396379,0.321482325 0.0622923925,0.42625358 0.0539379906,0.53080362 C0.0455836403,0.635353661 0.0546067883,0.740455447 0.065186889,0.844803868 C0.0728390275,0.920275906 0.0813545699,0.995929968 0.0996139838,1.06955804 C0.117873398,1.14318663 0.14624001,1.21511667 0.190681589,1.27659449 C0.254658919,1.36509648 0.349675679,1.42816973 0.45208402,1.46609421 C0.619248992,1.52799951 0.809625008,1.52467047 0.974523287,1.45695793 C1.26632177,1.33026177 1.5133368,1.10302113 1.66388455,0.822782532 C1.71779026,0.722439161 1.75966138,0.615526414 1.78670664,0.504877784 C1.79745551,0.46090163 1.80589659,0.416064341 1.80630348,0.370794938 C1.80668162,0.32552605 1.79873257,0.279589396 1.77814892,0.239268683"/>
        <path fill="url(#gh-linux-L)" d="M1.77814897,0.179662625 C1.7491398,0.138582316 1.69631943,0.107871522 1.63744234,0.0901027722 C1.5785653,0.0723336494 1.51384482,0.0666588774 1.45004508,0.0670145059 C1.32244565,0.0677265084 1.19559325,0.0917508158 1.06846492,0.0837998723 C0.961075864,0.0770831909 0.85917585,0.0479011522 0.754443528,0.0294718427 C0.646298274,0.0104419909 0.531585964,0.0030162891 0.424187938,0.0241422615 C0.309406789,0.04672057 0.208160413,0.102187431 0.144749628,0.174945515 C0.0888396894,0.239096943 0.062292444,0.314838728 0.0539380422,0.390420593 C0.0455836919,0.466002457 0.0546068398,0.541983192 0.0651869405,0.6174193 C0.072839079,0.671979942 0.0813546214,0.726672174 0.0996140354,0.779899769 C0.117873449,0.833127736 0.146240062,0.885127778 0.190681641,0.929571647 C0.25465897,0.99355197 0.349675731,1.03914921 0.452084072,1.06656578 C0.619249044,1.11131868 0.809625059,1.10891204 0.974523338,1.05996093 C1.26632182,0.968369075 1.51333685,0.80409108 1.6638846,0.60149952 C1.71779031,0.528958764 1.75966143,0.45166884 1.78670669,0.371678151 C1.79745556,0.339886679 1.80589665,0.307472671 1.80630353,0.274746276 C1.80668167,0.242020254 1.79873262,0.208811487 1.77814897,0.179662625"/>
      </g>
      <g transform="translate(7.735 10.294)">
        <path fill="#020204" fill-rule="nonzero" d="M1.86600738,0.429420184 C1.84511542,0.372508442 1.80833479,0.322084604 1.76335673,0.281435422 C1.71837872,0.240785724 1.66535843,0.209642029 1.60955003,0.185960301 C1.49793316,0.138596844 1.37644929,0.120911606 1.2572829,0.098528799 C1.14491318,0.0774227408 1.03339862,0.0517949504 0.92067605,0.0326627994 C0.803553439,0.0127839875 0.682554327,6.70344619e-05 0.566667057,0.0262017085 C0.465299246,0.049062007 0.371519477,0.101424172 0.294830764,0.171544797 C0.21814205,0.241664907 0.158229536,0.329147974 0.115127563,0.423701113 C0.0392148508,0.590231218 0.0153745085,0.777696184 0.0298421955,0.960139754 C0.0406097348,1.09592321 0.0749782003,1.23580299 0.164363344,1.33858126 C0.236588026,1.42162768 0.339030864,1.47343707 0.444566363,1.50466791 C0.626333761,1.55845842 0.824426526,1.55562544 1.00458154,1.49665987 C1.30195126,1.3970812 1.56538571,1.19893043 1.7435251,0.940839501 C1.80223744,0.855776378 1.85243929,0.763038841 1.87518078,0.662213338 C1.89250522,0.585404736 1.89314128,0.503335476 1.86600738,0.429420184"/>
        <g transform="translate(15.985)">
          <mask id="gh-linux-O" fill="#fff">
            <use xlink:href="#gh-linux-M"/>
          </mask>
          <path fill="url(#gh-linux-N)" fill-rule="nonzero" d="M-15.3550814,-0.0280549536 C-15.3834076,-0.0264770655 -15.4108458,-0.0233676978 -15.4388745,-0.0183865216 C-15.6177797,0.0134218462 -15.7816294,0.126437308 -15.8739539,0.282946276 C-15.93913,0.393432991 -15.9688257,0.524081611 -15.9593584,0.651958097 C-15.9555839,0.562150997 -15.9320568,0.474221378 -15.8884566,0.395744649 C-15.8144908,0.26261163 -15.680527,0.162166161 -15.5307246,0.134696985 C-15.4384357,0.117773877 -15.3434499,0.127944552 -15.2503401,0.139528623 C-15.1610007,0.15064603 -15.0708347,0.162365201 -14.9828468,0.181425161 C-14.8466632,0.210924966 -14.71191,0.256263982 -14.5977209,0.336120073 C-14.5710897,0.35474431 -14.5461791,0.375751363 -14.5252077,0.400576287 C-14.5042367,0.425401211 -14.487984,0.454096601 -14.4816997,0.485980769 C-14.4725088,0.532609941 -14.485794,0.581528082 -14.5090936,0.622950223 C-14.5323953,0.664372364 -14.5640057,0.700640586 -14.5977209,0.734137191 C-14.6250106,0.761250052 -14.6541753,0.787464136 -14.6831254,0.813096052 C-14.5511706,0.78753478 -14.4174632,0.751338749 -14.307668,0.674515193 C-14.2612724,0.642052466 -14.2192222,0.603116272 -14.1916468,0.553659793 C-14.1640714,0.504202799 -14.1523311,0.444280178 -14.1658643,0.389296449 C-14.1749985,0.352184624 -14.195327,0.318013034 -14.2206521,0.289389319 C-14.2459777,0.260765088 -14.276368,0.237196802 -14.307668,0.215264673 C-14.4457986,0.118476708 -14.6075146,0.0565198487 -14.7749755,0.0363986815 C-14.8823075,0.0166565168 -14.99058,-4.64084736e-06 -15.098868,-0.0135548838 C-15.1836119,-0.0241587044 -15.2701034,-0.0327953213 -15.3550814,-0.0280575318 L-15.3550814,-0.0280549536 Z" mask="url(#gh-linux-O)"/>
        </g>
        <g transform="translate(15.985)">
          <mask id="gh-linux-R" fill="#fff">
            <use xlink:href="#gh-linux-P"/>
          </mask>
          <path fill="url(#gh-linux-Q)" fill-rule="nonzero" d="M-15.3550814,-0.0280547806 C-15.3834076,-0.0264768925 -15.4108458,-0.0233675247 -15.4388745,-0.0183863486 C-15.6177797,0.0134220192 -15.7816294,0.126437481 -15.8739539,0.282946449 C-15.93913,0.393433164 -15.9688257,0.524081784 -15.9593584,0.65195827 C-15.9555839,0.56215117 -15.9320568,0.474221551 -15.8884566,0.395744822 C-15.8144908,0.262611803 -15.680527,0.162166334 -15.5307246,0.134697158 C-15.4384357,0.11777405 -15.3434499,0.127944725 -15.2503401,0.139528796 C-15.1610007,0.150646204 -15.0708347,0.162365374 -14.9828468,0.181425334 C-14.8466632,0.210925139 -14.71191,0.256264155 -14.5977209,0.336120246 C-14.5710897,0.354744483 -14.5461791,0.375751536 -14.5252077,0.40057646 C-14.5042367,0.425401384 -14.487984,0.454096774 -14.4816997,0.485980942 C-14.4725088,0.532610114 -14.485794,0.581528255 -14.5090936,0.622950396 C-14.5323953,0.664372537 -14.5640057,0.700640759 -14.5977209,0.734137364 C-14.6250106,0.761250225 -14.6541753,0.787464309 -14.6831254,0.813096225 C-14.5511706,0.787534953 -14.4174632,0.751338922 -14.307668,0.674515366 C-14.2612724,0.642052639 -14.2192222,0.603116445 -14.1916468,0.553659966 C-14.1640714,0.504202972 -14.1523311,0.444280351 -14.1658643,0.389296622 C-14.1749985,0.352184797 -14.195327,0.318013207 -14.2206521,0.289389492 C-14.2459777,0.260765261 -14.276368,0.237196975 -14.307668,0.215264846 C-14.4457986,0.118476881 -14.6075146,0.0565200217 -14.7749755,0.0363988545 C-14.8823075,0.0166566898 -14.99058,-4.46782121e-06 -15.098868,-0.0135547108 C-15.1836119,-0.0241585314 -15.2701034,-0.0327951483 -15.3550814,-0.0280573588 L-15.3550814,-0.0280547806 Z" mask="url(#gh-linux-R)"/>
        </g>
      </g>
      <g transform="translate(0 5.499)">
        <path fill="#020204" fill-rule="nonzero" d="M2.5008062,0.0218986117 C2.3572719,0.201026554 2.21401647,0.380377772 2.07104053,0.559951235 C1.92372374,0.744977179 1.77670221,0.930240837 1.62823717,1.11434635 C1.44607437,1.34023907 1.25959177,1.56782004 1.14099358,1.83266959 C1.03908835,2.06024076 0.990899599,2.30744117 0.921070007,2.54680937 C0.841768187,2.81864752 0.734090834,3.08155359 0.613190521,3.33761595 C0.501554422,3.57405732 0.378579186,3.80494464 0.25538583,4.03557516 C0.165755598,4.20337221 0.0746433889,4.37492629 0.0435662124,4.56260577 C0.0190068482,4.71092312 0.0333305657,4.86396332 0.0710890155,5.00948121 C0.108847465,5.15499859 0.169560062,5.29363514 0.238044015,5.42746738 C0.530275543,5.99855149 0.968721299,6.4908237 1.48806966,6.86740474 C1.72375385,7.03830034 1.9762193,7.18613247 2.24104456,7.30704511 C2.38452244,7.37255376 2.5356637,7.43102586 2.69336522,7.43376293 C2.772216,7.4351294 2.8518813,7.42213812 2.92408443,7.39041999 C2.99628755,7.35870238 3.06076651,7.3077237 3.10366155,7.24154728 C3.15640107,7.16018291 3.17430128,7.05909546 3.16371484,6.96271331 C3.15312839,6.86633116 3.11550969,6.77434957 3.06505847,6.69154705 C2.94181968,6.48928294 2.74715032,6.34293949 2.55990636,6.19789342 C2.15560868,5.88470944 1.76453453,5.55434247 1.3903035,5.20578544 C1.28464085,5.10737163 1.17896927,5.00583763 1.10513942,4.88174498 C1.03324264,4.76090144 0.994398386,4.62321059 0.968088494,4.4850799 C0.895912025,4.10614285 0.914413433,3.70733266 1.04335169,3.34377023 C1.09379368,3.20154063 1.16046518,3.06573139 1.224765,2.92920591 C1.33621371,2.69257117 1.44171161,2.45142346 1.58826349,2.23476859 C1.77069922,1.96506472 2.01457632,1.73662571 2.16328871,1.44695742 C2.28880966,1.20246263 2.33963792,0.927576475 2.38820738,0.657069217 C2.42620731,0.445429045 2.46374037,0.233704823 2.5008062,0.0218986117"/>
        <g transform="translate(15.985)">
          <mask id="gh-linux-T" fill="#fff">
            <use xlink:href="#gh-linux-S"/>
          </mask>
          <path fill="#7C7C7C" fill-rule="nonzero" d="M-14.3180201,2.07649765 C-14.4377158,2.18671726 -14.5414548,2.31423846 -14.625006,2.45386196 C-14.7625819,2.68376645 -14.8435925,2.94209715 -14.943579,3.19066455 C-15.0180193,3.37572401 -15.1047294,3.5615786 -15.1151161,3.76077821 C-15.120451,3.86309239 -15.1052899,3.96527869 -15.1018788,4.06767487 C-15.0984652,4.17007155 -15.1079408,4.27656869 -15.1580677,4.36592201 C-15.2000096,4.44068503 -15.2697522,4.49942475 -15.3505587,4.52804331 C-15.2414745,4.56449253 -15.1440652,4.63506435 -15.075443,4.72736204 C-15.0179734,4.80465896 -14.9812034,4.89513692 -14.9312627,4.97749907 C-14.8906729,5.04443968 -14.8408513,5.10647543 -14.7795148,5.15512131 C-14.7181782,5.20376719 -14.6448575,5.23864316 -14.5672084,5.24860499 C-14.4606633,5.26227384 -14.3487926,5.22652745 -14.2699152,5.15360943 C-14.3691973,4.22359909 -14.2782661,3.27369498 -14.0043489,2.37940988 C-13.9870519,2.3229385 -13.9689108,2.26605564 -13.9646263,2.20715039 C-13.9603413,2.14824515 -13.9712761,2.08607997 -14.0071231,2.03914141 C-14.0262093,2.01414941 -14.0519011,1.99424946 -14.0808713,1.98201773 C-14.1098415,1.96978652 -14.1420212,1.96525293 -14.1732427,1.96900479 C-14.2044648,1.97275357 -14.2346545,1.98478368 -14.2599023,2.00352961 C-14.2851506,2.02227605 -14.3053965,2.04769552 -14.3180191,2.07649765 L-14.3180201,2.07649765" mask="url(#gh-linux-T)" opacity=".95"/>
        </g>
      </g>
      <g transform="translate(9.54 10.913)">
        <mask id="gh-linux-V" fill="#fff">
          <use xlink:href="#gh-linux-U"/>
        </mask>
        <g fill-rule="nonzero" mask="url(#gh-linux-V)">
          <g transform="translate(-11.293 -.516)">
            <path fill="url(#gh-linux-W)" d="M2.14391833,0.104114832 C2.22638567,0.069929835 2.31914642,0.0637080056 2.40693784,0.0798983751 C2.49472875,0.0960887446 2.5776906,0.13401478 2.65153215,0.184182856 C2.79921526,0.284519523 2.90874906,0.430546879 3.01365386,0.575020582 C3.25455973,0.906792698 3.48643658,1.24548225 3.69662571,1.59751786 C3.86711755,1.88306713 4.02372913,2.177977 4.22073981,2.44591838 C4.34934181,2.6208216 4.49437448,2.78312596 4.62361692,2.95755685 C4.75285885,3.13198722 4.86741301,3.32139206 4.92472077,3.53078503 C4.99918626,3.80286915 4.97033669,4.10279061 4.8408421,4.35340204 C4.74974587,4.52970061 4.61001357,4.68095717 4.44005749,4.7834013 C4.27010192,4.88584543 4.07030365,4.93884081 3.87199972,4.93140359 C3.55672479,4.91957975 3.26871844,4.76200493 2.97561387,4.64526648 C2.37844149,4.40742305 1.72981552,4.33281369 1.11429066,4.14757479 C0.925119919,4.090645 0.73911321,4.02326711 0.548629115,3.97089824 C0.463998107,3.9476311 0.378018159,3.92716084 0.298087814,3.89089829 C0.218157984,3.85463522 0.143416209,3.800706 0.0989588508,3.72502667 C0.0645964185,3.66653188 0.0500553546,3.59766016 0.050951237,3.52982541 C0.0519322679,3.46199066 0.0677982422,3.39500724 0.0908955332,3.3312188 C0.137090064,3.20364242 0.21172577,3.08815493 0.262099589,2.96217037 C0.34435139,2.75645965 0.359128879,2.52962328 0.348036223,2.30835645 C0.336944082,2.08708961 0.301071879,1.86774512 0.285924153,1.64671857 C0.27915986,1.54802012 0.276608425,1.44806143 0.295452844,1.35094293 C0.314297262,1.25382392 0.356081389,1.15888456 0.427341085,1.09026086 C0.493037951,1.02699425 0.580227098,0.98943536 0.66951236,0.970810093 C0.758797622,0.952184826 0.850780248,0.951345864 0.941964648,0.953400728 C1.03314853,0.95545817 1.12453919,0.960323325 1.21543999,0.952854139 C1.30634078,0.945383406 1.39764326,0.924980694 1.47682849,0.879720572 C1.55211129,0.836691151 1.61369894,0.772749041 1.66471784,0.702634088 C1.71573622,0.632519134 1.75697221,0.555894104 1.79924621,0.480184867 C1.84152072,0.40447563 1.88527411,0.32902164 1.94061518,0.262265629 C1.99595677,0.195509618 2.06381576,0.137321642 2.14391833,0.104116895"/>
            <path fill="#D99A03" d="M2.27451332,0.24642126 C2.34954809,0.21619439 2.4340672,0.212871028 2.51288374,0.230742415 C2.59170029,0.248613287 2.66497824,0.286955968 2.72885641,0.33629591 C2.85661275,0.43497631 2.94542052,0.574205856 3.03072754,0.711101571 C3.23544512,1.04282212 3.43558475,1.3780331 3.6245549,1.7200816 C3.76774567,1.97755788 3.9042794,2.24050262 4.08025981,2.47699968 C4.19699208,2.6338366 4.33021327,2.77769514 4.44935517,2.93266644 C4.56849655,3.08763774 4.67475906,3.2566048 4.72743474,3.44488553 C4.79530765,3.687541 4.76779207,3.9558949 4.65032397,4.17880047 C4.56588375,4.33894889 4.43622466,4.47511548 4.27977345,4.56618747 C4.12332223,4.65725997 3.94051513,4.70279494 3.75966079,4.69447648 C3.4709841,4.68118715 3.20733344,4.53702129 2.93560667,4.43919326 C2.41464216,4.25017052 1.84998665,4.22480983 1.31563382,4.07720665 C1.12408078,4.02521214 0.937321738,3.95588665 0.744832797,3.9073537 C0.65966706,3.88587276 0.572965203,3.86831283 0.492052545,3.83416754 C0.411139887,3.80002173 0.334943876,3.74709183 0.29107704,3.67097781 C0.258445696,3.61440227 0.245410587,3.54782107 0.247426777,3.48254858 C0.249442967,3.41727558 0.265946336,3.35310246 0.289190278,3.2920748 C0.335678677,3.17002 0.408833901,3.05950183 0.455699756,2.93758419 C0.526792381,2.75327809 0.535622367,2.55063446 0.522423281,2.35355056 C0.509224196,2.15646667 0.474926787,1.96116744 0.462955463,1.76397732 C0.457606113,1.67585484 0.456802215,1.5866459 0.474626679,1.5001833 C0.492449595,1.41372071 0.530113681,1.3295182 0.592961067,1.26752215 C0.661072721,1.20002154 0.75493489,1.16314795 0.849613849,1.14870254 C0.944292807,1.13425764 1.04071415,1.14055115 1.13604643,1.14906349 C1.2313782,1.15756914 1.3270962,1.16828227 1.42280594,1.16255444 C1.51851516,1.15682608 1.6154372,1.13350737 1.69449455,1.07969262 C1.76654989,1.03098384 1.82061422,0.959852021 1.86179142,0.883827207 C1.90296915,0.807802392 1.93231168,0.726273533 1.96370649,0.645774426 C1.99510183,0.565274803 2.02902487,0.484794259 2.07827355,0.413230331 C2.12752273,0.341665886 2.19357901,0.278920598 2.27451332,0.246431573"/>
            <path fill="#F5BD0C" d="M2.2045675,0.0590674466 C2.27722616,0.0230021606 2.36290393,0.0156128788 2.44261307,0.0318837817 C2.52232168,0.0481541782 2.59618541,0.0871124855 2.65896524,0.138015583 C2.78452492,0.239820766 2.86420723,0.384866818 2.93841593,0.527196074 C3.10883506,0.854055325 3.26757576,1.1880299 3.47148996,1.49583613 C3.61941697,1.71913099 3.79014343,1.92713127 3.93977982,2.14932523 C4.14271737,2.45066483 4.30773816,2.78209832 4.37583332,3.1371363 C4.42163436,3.3759364 4.42012711,3.63388472 4.30506349,3.84901248 C4.22933053,3.99060544 4.10653732,4.10676027 3.96146598,4.17944484 C3.81639464,4.2521289 3.64984855,4.28158475 3.48764114,4.26727409 C3.23217641,4.24473607 3.00016137,4.11914816 2.75967369,4.03156096 C2.33298955,3.87615969 1.87182339,3.83896717 1.43268269,3.72171448 C1.24746338,3.67226017 1.06605627,3.60852508 0.878312849,3.56930902 C0.795491255,3.55200913 0.711056194,3.53936856 0.631999875,3.50958355 C0.552944072,3.47979855 0.478015013,3.4302936 0.437617983,3.35721304 C0.409185574,3.30577721 0.399637289,3.24557421 0.403877476,3.18719676 C0.408116117,3.1288188 0.425578078,3.07199952 0.448461581,3.01795982 C0.494228071,2.90988094 0.561949378,2.81087814 0.597502394,2.69915475 C0.649748538,2.53497515 0.628272243,2.35697611 0.589066365,2.18933025 C0.549861002,2.0216844 0.493327231,1.85707235 0.475908068,1.68591467 C0.468149603,1.6096808 0.468337815,1.53197484 0.485775541,1.45729964 C0.503213783,1.38262445 0.538726062,1.31086304 0.59450286,1.25729733 C0.666343177,1.18830436 0.766921683,1.15399474 0.866928334,1.14440974 C0.966935501,1.13482525 1.06762797,1.14789879 1.16705039,1.16219425 C1.26647281,1.1764882 1.36651607,1.19207294 1.46689038,1.1875068 C1.56726469,1.18293913 1.66946285,1.15657583 1.74808241,1.09512457 C1.82583311,1.03435188 1.87471412,0.943858495 1.90274587,0.85023358 C1.93077762,0.756609171 1.9398711,0.658720429 1.95135462,0.561786238 C1.96283814,0.464852047 1.9771598,0.367017489 2.01476458,0.276687165 C2.05236988,0.18635684 2.11588039,0.103088668 2.2045675,0.0590674466"/>
            <path fill="url(#gh-linux-X)" d="M3.11489395,0.875027129 C3.24928361,1.11807191 3.33125025,1.39694507 3.46456891,1.64205607 C3.58719556,1.86750998 3.72674894,2.09963279 3.85130619,2.30756647 C3.90676173,2.40014312 4.03607843,2.54242429 4.16682966,2.7632621 C4.28531101,2.96337595 4.4049701,3.24266937 4.47191794,3.336448 C4.43347522,3.22667804 4.35438796,2.93184088 4.26005036,2.72166206 C4.17189747,2.52526295 4.06927235,2.41319061 4.0060011,2.30756647 C3.88144436,2.09963279 3.74730428,1.91276082 3.61926382,1.71456931 C3.44264296,1.44118163 3.30803931,1.135225 3.11489395,0.875027129 L3.11489395,0.875027129 Z"/>
          </g>
        </g>
      </g>
    </g>
  </g>
</svg>
