<svg xmlns="http://www.w3.org/2000/svg" xmlns:xlink="http://www.w3.org/1999/xlink" width="91" height="23" viewBox="0 0 91 23">
  <defs>
    <linearGradient id="gh-mac-a" x1="121.075%" x2="40.175%" y1="53.194%" y2="44.528%">
      <stop offset="0%" stop-color="#C2C2C2"/>
      <stop offset="100%" stop-color="#ADABAB"/>
    </linearGradient>
    <rect id="gh-mac-b" width="91" height="23" x="0" y="0" rx="4"/>
  </defs>
  <g fill="none" fill-rule="evenodd">
    <rect width="91" height="23" fill="url(#gh-mac-a)" rx="4"/>
    <mask id="gh-mac-c" fill="#fff">
      <use xlink:href="#gh-mac-b"/>
    </mask>
    <path fill="#CACACA" d="M0 0H28.115V23.5H0z" mask="url(#gh-mac-c)"/>
    <text fill="#FFF" font-family="Helvetica" font-size="11" letter-spacing=".157">
      <tspan x="34.5" y="15">Mac OS</tspan>
    </text>
    <path fill="#FFF" fill-rule="nonzero" d="M11.5181393,10.8845629 C11.3069161,11.372532 11.0568966,11.8217047 10.7672188,12.2346682 C10.3723602,12.7976424 10.0490593,13.1873282 9.79990188,13.4037247 C9.41366506,13.7589247 8.99983965,13.9408353 8.55670153,13.9511812 C8.23857341,13.9511812 7.85492271,13.8606565 7.40833624,13.6770224 C6.96028424,13.4942482 6.54852788,13.4037247 6.17203294,13.4037247 C5.77717459,13.4037247 5.35369318,13.4942482 4.90072694,13.6770224 C4.44707047,13.8606565 4.08161118,13.9563541 3.80219271,13.9658376 C3.37724576,13.9839424 2.95367859,13.7968588 2.53088671,13.4037247 C2.26103835,13.1683612 1.92351212,12.7648812 1.51917,12.1932847 C1.08534325,11.5828932 0.728677506,10.8750794 0.449259153,10.06812 C0.150011706,9.19650024 0,8.35246894 0,7.53533659 C0,6.59931541 0.202257165,5.79201106 0.607374929,5.11549271 C0.925761812,4.57208859 1.34932929,4.14343435 1.87945659,3.82875447 C2.40958435,3.51407506 2.98238765,3.35371776 3.59924624,3.34345812 C3.93677224,3.34345812 4.37939329,3.44786282 4.929436,3.65305129 C5.47792706,3.85892941 5.83010976,3.96333412 5.98451812,3.96333412 C6.09995812,3.96333412 6.49119553,3.84125541 7.15443694,3.59787471 C7.78164129,3.37216741 8.31099271,3.27871153 8.74464718,3.31552471 C9.91973894,3.41035976 10.8025664,3.87358565 11.3896812,4.70813341 C10.3387373,5.34490729 9.81886906,6.23678706 9.82921459,7.38092788 C9.83869812,8.27211788 10.1619991,9.01372729 10.7973934,9.60256671 C11.0853467,9.87586341 11.4069238,10.0870868 11.7647094,10.2370987 C11.6871182,10.4621161 11.6052153,10.6776502 11.5181393,10.8845629 Z M8.82310188,0.279426318 C8.82310188,0.977937259 8.56790918,1.63013494 8.05924918,2.23380235 C7.44540776,2.95144482 6.70293647,3.36613212 5.89778729,3.30069612 C5.887528,3.21689635 5.88157918,3.1287 5.88157918,3.03602047 C5.88157918,2.36545071 6.17349859,1.64780859 6.69190129,1.06103867 C6.95071412,0.763946788 7.27987776,0.516918906 7.67904694,0.319860082 C8.07735376,0.125741494 8.45410741,0.0183897341 8.80844506,6.20404424e-06 C8.81879141,0.0933862047 8.82310188,0.186772082 8.82310188,0.279417259 L8.82310188,0.279426318 Z" transform="translate(8.913 4.1)"/>
  </g>
</svg>
